<?xml version="1.0" encoding="UTF-8"?>
<svg version="1.1" xmlns="http://www.w3.org/2000/svg" width="2886" height="704">
<path d="M0 0 C24.2530733 -0.07022376 48.50613127 -0.12305352 72.75928593 -0.15543652 C84.02160615 -0.17087522 95.28386303 -0.1919072 106.54614258 -0.22631836 C116.36758784 -0.25631272 126.18898721 -0.27559676 136.01047701 -0.28226548 C141.20611439 -0.28616079 146.40162052 -0.29525227 151.59721565 -0.31719017 C156.49816327 -0.3377142 161.39892689 -0.34380197 166.29991341 -0.33932304 C168.08839929 -0.34014118 169.87689201 -0.34601124 171.66534042 -0.35761642 C196.48588476 -0.5106309 217.86272332 5.34957321 236.140625 23.05078125 C249.71241102 36.7361197 258.20784967 55.11084694 258.25 74.5 C258.18767391 76.33416766 258.11291605 78.16825069 258 80 C258.72445313 79.79503906 259.44890625 79.59007812 260.1953125 79.37890625 C277.16094592 74.65114974 293.43075551 74.52158581 309.3515625 83.29296875 C318.93679393 89.47106039 324.9558563 98.73070715 327.68896484 109.78710938 C329.03246044 116.15244899 330.08244476 122.56049414 331 129 C331.66 128.67 332.32 128.34 333 128 C336.61726636 127.59808152 338.59782296 127.79891148 341.875 129.4375 C344.59420348 132.71653949 344.41893216 134.50730945 344.31201172 138.63452148 C343.81133686 142.43032641 342.15930175 145.12755419 340.125 148.3125 C339.29348312 149.71674704 338.46550785 151.12309576 337.640625 152.53125 C337.20685547 153.26214844 336.77308594 153.99304688 336.32617188 154.74609375 C329.06288497 167.09047238 324.14653491 178.93759582 320.81713867 192.8840332 C316.93801965 208.91498424 311.43737216 224.44214154 306 240 C305.76694153 240.66781494 305.53388306 241.33562988 305.29376221 242.02368164 C290.33711901 284.77525399 290.33711901 284.77525399 278 293 C274.9375 292.9375 274.9375 292.9375 272 292 C267.75560809 283.86913414 269.98151227 274.22679719 272.3125 265.8125 C272.57756348 264.83603516 272.84262695 263.85957031 273.11572266 262.85351562 C281.43075171 233.13524209 292.69040818 203.76235261 305.8671875 175.8671875 C307.86170372 171.53828419 308.96536863 167.64050385 309.75 162.9375 C309.92366089 161.90375244 309.92366089 161.90375244 310.10083008 160.84912109 C310.41963905 158.90244382 310.71084331 156.95130212 311 155 C311.13277344 154.13761719 311.26554687 153.27523437 311.40234375 152.38671875 C313.36608453 136.81129531 313.73354823 118.57700582 304.71875 105.12109375 C298.65457874 97.63735513 291.09061706 94.86091809 281.68359375 93.71875 C272.49222354 93.32412945 263.5562726 97.02114954 255 100 C254.9071875 100.83144531 254.814375 101.66289062 254.71875 102.51953125 C251.40167581 118.58210248 238.71410374 134.18596697 225.35302734 143.09863281 C217.44575833 148.06083628 208.84111269 153.16555533 199.5 154.5 C198.675 154.665 197.85 154.83 197 155 C196.28233696 156.30659174 195.62234223 157.64541063 195 159 C194.15438449 160.22011681 193.27702482 161.41863045 192.375 162.59765625 C191.84285889 163.30204834 191.31071777 164.00644043 190.76245117 164.73217773 C189.89003784 165.88568726 189.89003784 165.88568726 189 167.0625 C166.68390059 197.02699116 147.70137887 229.15056183 130 262 C129.48743652 262.94391602 128.97487305 263.88783203 128.44677734 264.86035156 C120.2836163 279.9201199 113.03225302 295.38506424 106 311 C105.70806763 311.64809631 105.41613525 312.29619263 105.11535645 312.96392822 C96.81395795 331.42398916 88.9841142 349.99491143 82 369 C81.56091309 370.18319824 81.12182617 371.36639648 80.66943359 372.58544922 C48.37346825 459.14277979 48.37346825 459.14277979 56.24609375 548.078125 C62.56884408 561.7174455 70.76849237 568.2484472 84.75 573.375 C119.29850273 580.1993956 156.51077551 557.36329969 183.9375 539.1875 C198.06014476 529.70609281 211.75383212 519.66941676 225 509 C225.96268799 508.2265625 225.96268799 508.2265625 226.94482422 507.4375 C235.52210339 500.53752778 244.0081859 493.53827218 252.37597656 486.38574219 C254.06714221 484.94270908 255.76374619 483.50625183 257.4609375 482.0703125 C264.4570255 476.13417922 271.27987123 470.04776667 277.9921875 463.79296875 C280.59154113 461.37132771 283.22475007 458.9909822 285.875 456.625 C297.00746289 446.61829178 307.79895348 436.32790938 318.30249023 425.66064453 C321.76995384 422.15432046 325.23770658 418.74408954 329.00390625 415.55859375 C332.83443076 412.26971208 336.08933253 408.6149267 339.42480469 404.83300781 C342.37226427 401.59046696 345.43241462 398.48753059 348.5390625 395.3984375 C349.11436707 394.82635559 349.68967163 394.25427368 350.28240967 393.66485596 C352.06139133 391.89965865 353.84274497 390.13689194 355.625 388.375 C365.43143694 378.7405202 365.43143694 378.7405202 374.66162109 368.56103516 C376.34249039 366.600532 378.14285816 364.79310247 380 363 C383.10246002 359.93882747 385.98106424 356.76857732 388.8203125 353.46484375 C391.81343428 350.08014868 394.9082997 346.79453391 398 343.5 C402.23387134 338.98364946 406.46049981 334.47439335 410.47265625 329.7578125 C411.59083397 328.4709072 412.75100641 327.22016708 413.93359375 325.9921875 C417.91478861 321.77868952 420 319.06051317 420 313 C419.79375 311.96875 419.5875 310.9375 419.375 309.875 C419 307 419 307 420.0625 304.375 C422.4671533 301.42736047 424.60477555 299.73089874 428 298 C431.125 297.9375 431.125 297.9375 434 299 C438.66227275 303.91428749 439.26921405 307.13295571 439.234375 313.69140625 C438.81680899 319.58604647 437.40464187 325.27273999 436 331 C436.54527344 330.32195312 437.09054687 329.64390625 437.65234375 328.9453125 C442.91647598 322.44838349 448.30465539 316.12556849 454 310 C454.63421875 309.31164062 455.2684375 308.62328125 455.921875 307.9140625 C465.95614379 297.42369058 476.6514047 289.033231 491.5 288.4375 C503.41663416 288.84429273 509.70764071 294.14234227 517.75 302.37890625 C521.5999992 306.86388796 522.45442218 309.98830802 522.3203125 315.8125 C521.71947547 319.9157773 519.35560791 321.97160779 516.1875 324.375 C512.46830225 325.43762793 510.68930429 325.33578259 507 324 C505.25835012 321.34332087 503.92131016 318.58949771 502.5234375 315.73828125 C499.64134007 310.55789587 495.56342774 308.28973224 490 306.625 C483.28922362 305.29830141 478.13328118 306.95352082 472.37890625 310.37109375 C444.96489477 329.14226417 422.91124548 365.59852082 412.140625 396.35546875 C411.02168119 398.94973232 410.26799716 400.34602159 408 402 C403.11554047 402.63025284 401.11955831 402.74637221 397 400 C394.49052055 396.23578082 394.47788846 393.35374413 395 389 C395.85666022 385.72470124 397.04231742 382.61665789 398.28125 379.46875 C398.61419067 378.59222778 398.94713135 377.71570557 399.29016113 376.81262207 C400.34776287 374.03683572 401.42351727 371.26851129 402.5 368.5 C403.22387055 366.60983959 403.94653947 364.71921853 404.66796875 362.828125 C406.43145612 358.21330479 408.21124864 353.60508329 410 349 C409.67 348.67 409.34 348.34 409 348 C408.45472656 348.60585938 407.90945313 349.21171875 407.34765625 349.8359375 C405.75144595 351.60950449 404.15507923 353.38293071 402.55859375 355.15625 C400.96627726 356.92603077 399.37495102 358.69670363 397.78515625 360.46875 C370.58381089 390.76898281 370.58381089 390.76898281 358.125 402.8125 C356.31261637 404.67818903 354.62994414 406.5823733 352.93920898 408.55639648 C348.77042674 413.33203913 344.33427248 417.80970096 339.84765625 422.28515625 C338.55921059 423.575037 338.55921059 423.575037 337.24473572 424.89097595 C335.43822985 426.69815861 333.63047538 428.50409392 331.8215332 430.30883789 C329.0706319 433.05438393 326.32510779 435.80522546 323.58007812 438.55664062 C321.81542468 440.3206332 320.05046103 442.0843155 318.28515625 443.84765625 C317.47345474 444.66138199 316.66175323 445.47510773 315.82545471 446.31349182 C311.56546956 450.55620896 307.2333011 454.64591522 302.66465759 458.55552673 C300.49962089 460.43419394 298.49533452 462.44327057 296.5 464.5 C293.21145472 467.82769463 289.83618376 470.95336441 286.28515625 473.99609375 C283.93513231 476.05688398 281.64949784 478.17489502 279.36547852 480.30810547 C273.93508927 485.3789971 268.39936784 490.20999944 262.6015625 494.86328125 C260.05013271 496.95882494 257.61673227 499.13963155 255.1875 501.375 C250.81377979 505.35611856 246.25671222 509.0166632 241.58569336 512.63671875 C237.74923706 515.6128291 233.9744948 518.65033135 230.23095703 521.74243164 C199.6823771 546.91846738 165.34830533 570.61611538 127.625 583.375 C126.63846436 583.70918945 125.65192871 584.04337891 124.63549805 584.38769531 C114.32833301 587.74758025 104.46726502 589.39332547 93.625 589.375 C92.62202881 589.37338867 91.61905762 589.37177734 90.58569336 589.37011719 C82.72586715 589.24046533 76.2627728 588.15197727 69 585 C68.28457031 584.73445312 67.56914063 584.46890625 66.83203125 584.1953125 C54.79334943 579.14915844 46.00696632 567.61495495 41.11279297 555.87109375 C12.7490166 482.36496906 52.94205691 382.92585176 82.859375 315.10546875 C86.16946801 307.66592167 89.60364226 300.28547218 93.08856201 292.92645264 C94.00266762 290.99436162 94.91221257 289.06017927 95.82080078 287.12548828 C102.91023534 272.05093318 110.33163282 257.20102363 118.49804688 242.67578125 C120.04742474 239.9155112 121.57909331 237.14589612 123.109375 234.375 C132.87720643 216.78121618 143.36780453 199.64050587 154.6875 183 C155.14898438 182.3203418 155.61046875 181.64068359 156.0859375 180.94042969 C161.49095091 173.11056437 167.28184264 165.62420981 173 158 C114.92 157.67 56.84 157.34 -3 157 C-3 137.2 -3 117.4 -3 97 C2.84541504 96.9906543 8.69083008 96.98130859 14.71337891 96.97167969 C33.99981848 96.937953 53.28615105 96.88263 72.57250404 96.81609726 C84.26887875 96.77627766 95.9651859 96.74389999 107.66162109 96.72900391 C117.85551667 96.71600256 128.04926377 96.68907664 138.24307573 96.64538693 C143.64129791 96.62273808 149.03933671 96.60709138 154.43761063 96.60811615 C159.51840201 96.60886073 164.59878749 96.59099099 169.67947388 96.55883217 C171.54427617 96.55031195 173.40912388 96.54859759 175.27393723 96.55419731 C177.82092764 96.56082687 180.36662268 96.54294253 182.91348267 96.51898193 C183.65084959 96.52674235 184.38821651 96.53450277 185.14792788 96.54249835 C190.22435593 96.45799821 193.0718566 95.16000469 197 92 C200.48039346 88.22957375 202.95573356 84.9314219 203.03515625 79.671875 C202.60968763 72.73984962 200.69243959 68.76936643 195.8125 63.75 C188.9010661 59.44955224 180.72784087 59.72324081 172.82739258 59.8046875 C171.74641296 59.80760803 170.66543335 59.81052856 169.55169678 59.8135376 C167.2175137 59.82111453 164.88334191 59.83331031 162.54920387 59.84967041 C158.84387029 59.87535112 155.13868115 59.88826885 151.43327332 59.89794922 C143.55961973 59.9207463 135.68607687 59.95905995 127.8125 60 C118.69980836 60.04735602 109.58718793 60.08813015 100.47440147 60.11187744 C96.84415094 60.1247357 93.21411868 60.14975378 89.5839386 60.17529297 C63.48328103 60.29131229 41.07274446 57.04753763 21.2734375 38.2734375 C11.45155843 28.45155843 3.61257727 17.64252783 0 4 C0 2.68 0 1.36 0 0 Z M434 332 C435 334 435 334 435 334 Z " fill="#62313A" transform="translate(1478,105)"/>
<path d="M0 0 C32.401875 -0.061875 64.80375 -0.12375 98.1875 -0.1875 C113.51546021 -0.22846802 113.51546021 -0.22846802 129.15307617 -0.27026367 C141.66271973 -0.28381348 141.66271973 -0.28381348 147.52510071 -0.28633118 C151.60624619 -0.28911817 155.68727377 -0.30032887 159.76838684 -0.31672668 C164.98528724 -0.33740817 170.20201786 -0.34345426 175.41895545 -0.33921683 C177.32656927 -0.34010202 179.23418944 -0.34598895 181.14176786 -0.35764539 C202.14032009 -0.47992692 218.90186385 3.50005426 235 18 C235.91652344 18.79470703 235.91652344 18.79470703 236.8515625 19.60546875 C253.34161542 34.85312042 263.8918307 60.35191515 265.20703125 82.48388672 C265.30426316 86.32505366 265.32878518 90.15764089 265.3125 94 C265.30976578 95.02130005 265.30976578 95.02130005 265.30697632 96.06323242 C265.21944815 115.52584872 264.03204062 138.1126731 250 153 C248.84564453 154.33998047 248.84564453 154.33998047 247.66796875 155.70703125 C234.68319351 169.93772196 217.86449812 174.73946902 199 176 C207.21749198 189.41415785 215.87162773 202.53955474 224.51002502 215.68412781 C229.60215095 223.43449416 234.66096356 231.20638687 239.69873047 238.9921875 C240.91071518 240.86223671 242.12850951 242.72836581 243.34765625 244.59375 C243.99605469 245.5940625 244.64445312 246.594375 245.3125 247.625 C245.84488281 248.44226563 246.37726563 249.25953125 246.92578125 250.1015625 C248 252 248 252 248 254 C237.36948984 254.3952182 226.74074501 254.69658001 216.10436535 254.88080692 C211.16401132 254.96927153 206.22870633 255.08902826 201.29125977 255.2824707 C196.51859616 255.4682702 191.75075847 255.56902665 186.97475624 255.61291313 C185.16049456 255.64414578 183.34647606 255.70515782 181.53429222 255.79741096 C170.00318895 256.36066017 170.00318895 256.36066017 165 254 C160.4417062 249.86251479 157.66767461 244.45843028 154.99556923 238.98966408 C153.72437788 236.44916393 152.20752368 234.11901445 150.609375 231.7734375 C150.13564453 231.04447266 149.66191406 230.31550781 149.17382812 229.56445312 C148.70396484 228.84193359 148.23410156 228.11941406 147.75 227.375 C147.21826172 226.55708984 146.68652344 225.73917969 146.13867188 224.89648438 C141.29668414 217.45115677 136.4441901 210.01269249 131.59130859 202.57446289 C124.85323757 192.24524122 118.13410997 181.90374389 111.41601562 171.56152344 C104.971388 161.64091892 98.52138818 151.72382718 92.0625 141.8125 C91.44777832 140.86850342 90.83305664 139.92450684 90.19970703 138.9519043 C89.60915527 138.04609619 89.01860352 137.14028809 88.41015625 136.20703125 C87.89590088 135.4178833 87.38164551 134.62873535 86.85180664 133.81567383 C84.25333224 129.86469093 81.62311237 125.93466855 79 122 C78.67 165.56 78.34 209.12 78 254 C52.26 254 26.52 254 0 254 C0 170.18 0 86.36 0 0 Z M78 75 C78 88.86 78 102.72 78 117 C90.54359332 117.09038674 103.08697016 117.16376569 115.63081551 117.20724869 C121.45549753 117.22811886 127.2799451 117.25642663 133.10449219 117.30175781 C138.72604551 117.3452351 144.34737339 117.3691414 149.96908188 117.37950897 C152.11329573 117.38689689 154.25749732 117.40132377 156.40161514 117.42292023 C159.40619777 117.45197867 162.40985012 117.45595491 165.41455078 117.45410156 C166.74272575 117.47567322 166.74272575 117.47567322 168.09773254 117.49768066 C173.56733184 117.46119997 176.65445192 116.6315781 181 113 C185.89253316 107.69975574 187.85729797 102.21293888 188 95 C187.46697205 88.22462255 184.97344978 82.69714701 180 78 C174.76153031 74.70297611 170.49178559 74.58573594 164.50634766 74.65942383 C163.10051926 74.65876671 163.10051926 74.65876671 161.66629028 74.65809631 C158.58199921 74.66017901 155.4982581 74.68348586 152.4140625 74.70703125 C150.27029721 74.71262904 148.12652807 74.71689827 145.98275757 74.71989441 C140.35041643 74.73132871 134.71830872 74.76078392 129.08605957 74.79400635 C122.32290978 74.83014422 115.55968179 74.8438751 108.79646301 74.86136627 C98.53081318 74.89042189 88.26567515 74.94791935 78 75 Z " fill="#1C2938" transform="translate(847,8)"/>
<path d="M0 0 C30.69 0 61.38 0 93 0 C102.79925638 23.05707383 112.57518603 46.10999091 122.18829346 69.24304199 C126.04628624 78.52319232 129.93002523 87.7925725 133.8125 97.0625 C134.57414055 98.88126495 135.33577791 100.70003123 136.09741211 102.51879883 C137.63204614 106.18331654 139.16682027 109.84777554 140.70166016 113.51220703 C144.09501077 121.61413952 147.48645331 129.7168707 150.87802124 137.81954956 C152.75193424 142.29639983 154.62597358 146.77319721 156.5 151.25 C157.2500006 153.04166641 158.0000006 154.83333308 158.75 156.625 C159.12125 157.511875 159.4925 158.39875 159.875 159.3125 C163.25 167.37500001 163.25 167.37500001 164.3747406 170.06192017 C165.12556743 171.85553545 165.87643216 173.64913487 166.62733459 175.44271851 C168.48999352 179.8919427 170.3520162 184.34143094 172.21264648 188.79150391 C175.73400231 197.21160428 179.26219894 205.62867266 182.81118774 214.03717041 C184.49260642 218.02191928 186.17063183 222.00809296 187.84838867 225.99438477 C188.65137588 227.89956193 189.45603663 229.80403468 190.26245117 231.70776367 C191.378392 234.34248757 192.4886144 236.97955373 193.59765625 239.6171875 C193.92903091 240.39532806 194.26040558 241.17346863 194.6018219 241.97518921 C194.90474655 242.69864532 195.2076712 243.42210144 195.51977539 244.16748047 C195.78303116 244.79057098 196.04628693 245.4136615 196.31752014 246.05563354 C197 248 197 248 198 253 C169.29 253 140.58 253 111 253 C104.91544874 239.30975967 100.11981346 225.07948701 95 211 C67.94 210.67 40.88 210.34 13 210 C21.04490389 187.01456031 21.04490389 187.01456031 23.96484375 178.859375 C24.28787979 177.95544006 24.61091583 177.05150513 24.94374084 176.12017822 C25.94104687 173.32989893 26.93924853 170.53994116 27.9375 167.75 C28.62831577 165.81772998 29.31907122 163.8854384 30.00976562 161.953125 C31.67237667 157.30179638 33.33620861 152.6509072 35 148 C47.21 147.67 59.42 147.34 72 147 C70.53046875 142.38644531 69.0609375 137.77289063 67.546875 133.01953125 C66.60800344 130.07098562 65.66916951 127.12242812 64.73046875 124.17382812 C63.24531676 119.50875495 61.76003668 114.84372288 60.27392578 110.17895508 C59.07383654 106.411953 57.87437847 102.64475045 56.67533112 98.87741661 C56.22112068 97.45068101 55.76669486 96.02401396 55.31203461 94.59742165 C52.49142685 85.74657472 49.71303514 76.8844506 47 68 C43.26017531 76.87526307 40.22487994 85.97441291 37.14730835 95.09420776 C35.47984966 100.0338109 33.80281431 104.97015627 32.125 109.90625 C31.7803923 110.92025375 31.43578461 111.93425751 31.08073425 112.97898865 C27.67440634 122.98561017 24.18550181 132.96264303 20.6875 142.9375 C14.23836772 161.34056115 7.94207925 179.79379558 1.69213867 198.26538086 C-4.48882593 216.52793936 -10.74674165 234.76132982 -17 253 C-46.04 253 -75.08 253 -105 253 C-103.13887101 247.41661303 -101.3187251 242.14513513 -99.05859375 236.7578125 C-98.63957794 235.75516106 -98.63957794 235.75516106 -98.21209717 234.73225403 C-97.290284 232.52854344 -96.36389774 230.32678679 -95.4375 228.125 C-94.77289138 226.53861932 -94.10859259 224.9521088 -93.44458008 223.36547852 C-92.03055814 219.98819578 -90.6146453 216.61171475 -89.19726562 213.23583984 C-87.00751457 208.01966 -84.82345297 202.80111134 -82.640625 197.58203125 C-79.6305949 190.38601081 -76.61893887 183.19067432 -73.60546875 175.99609375 C-69.44295216 166.05811224 -65.28216452 156.11940786 -61.12197876 146.18045044 C-59.24806576 141.70360017 -57.37402642 137.22680279 -55.5 132.75 C-54.7499994 130.95833359 -53.9999994 129.16666692 -53.25 127.375 C-51.75 123.79166667 -50.25 120.20833333 -48.75 116.625 C-48.37876511 115.73816025 -48.00753021 114.8513205 -47.62504578 113.93760681 C-46.8748956 112.1455831 -46.12474302 110.35356039 -45.37458801 108.5615387 C-43.50186586 104.08784317 -41.62918542 99.61413019 -39.7565918 95.14038086 C-36.35506626 87.01402862 -32.95323061 78.88780688 -29.54983521 70.76223755 C-28.00660869 67.07772666 -26.46362501 63.3931141 -24.9206543 59.70849609 C-24.21178832 58.01590093 -23.50281437 56.32335098 -22.79370117 54.63085938 C-15.16879879 36.43178219 -7.58919741 18.21407377 0 0 Z " fill="#1C2938" transform="translate(620,8)"/>
<path d="M0 0 C30.69 0 61.38 0 93 0 C98.61 13.53 104.22 27.06 110 41 C112.95311019 48.08559243 115.90777412 55.17034019 118.875 62.25 C119.23308746 63.10514191 119.59117493 63.96028381 119.96011353 64.84133911 C126.24158687 79.84131749 132.56587724 94.82306856 138.89834595 109.80157471 C145.07231779 124.40717065 151.19711466 139.03239724 157.28598022 153.67364502 C157.588638 154.40138123 157.89129578 155.12911743 158.203125 155.87890625 C158.65940781 156.97606964 158.65940781 156.97606964 159.12490845 158.09539795 C162.62954449 166.51891568 166.15274281 174.93465515 169.67678833 183.35006714 C170.80440825 186.04317438 171.93143884 188.73652759 173.05834961 191.42993164 C176.64720514 200.00565447 180.24169424 208.57893571 183.85057068 217.14625549 C185.53762918 221.15215652 187.22210431 225.15914137 188.90634155 229.16622925 C189.71527921 231.08875519 190.52550995 233.01073759 191.33706665 234.93215942 C192.45965867 237.59016762 193.57794933 240.24994665 194.6953125 242.91015625 C195.03186356 243.70381592 195.36841461 244.49747559 195.71516418 245.31518555 C198 250.7722716 198 250.7722716 198 253 C168.96 253 139.92 253 110 253 C105.05 239.14 100.1 225.28 95 211 C67.94 210.67 40.88 210.34 13 210 C16.37539152 198.74869495 16.37539152 198.74869495 17.97705078 194.30664062 C18.33397003 193.31281372 18.69088928 192.31898682 19.05862427 191.29504395 C19.43373138 190.25924194 19.8088385 189.22343994 20.1953125 188.15625 C20.58822479 187.06534058 20.98113708 185.97443115 21.38595581 184.85046387 C22.20998298 182.56424284 23.03528773 180.27848192 23.86181641 177.99316406 C25.13096352 174.48350868 26.39587249 170.97234738 27.66015625 167.4609375 C28.46329572 165.23428627 29.26667259 163.00772066 30.0703125 160.78125 C30.44946808 159.72925415 30.82862366 158.6772583 31.2192688 157.59338379 C31.74519119 156.14046936 31.74519119 156.14046936 32.28173828 154.65820312 C32.59023712 153.80456177 32.89873596 152.95092041 33.21658325 152.07141113 C34 150 34 150 35 148 C47.21 148 59.42 148 72 148 C69.77618136 140.95437778 67.55230681 133.90877353 65.32798004 126.86331177 C64.29135972 123.57981363 63.25482093 120.29628981 62.21850586 117.01269531 C60.23444657 110.72634973 58.24917895 104.44039042 56.26123047 98.15527344 C54.79664876 93.52475178 53.33759286 88.89255192 51.88330078 84.25878906 C51.2464857 82.23760928 50.60960815 80.21644917 49.97265625 78.1953125 C49.68353867 77.26951385 49.39442108 76.34371521 49.09654236 75.38986206 C48.8327327 74.55496246 48.56892303 73.72006287 48.29711914 72.85986328 C47.95518272 71.77041916 47.95518272 71.77041916 47.6063385 70.65896606 C47.12724813 68.98678121 47.12724813 68.98678121 46 68 C45.77021957 68.68125443 45.54043915 69.36250885 45.30369568 70.06440735 C25.6983854 128.17867509 25.6983854 128.17867509 17.3125 152.0625 C10.89073397 170.35265835 4.63702255 188.69771417 -1.57299805 207.06079102 C-5.34934605 218.22481849 -9.14356885 229.38262361 -12.9765625 240.52734375 C-13.36411713 241.66079727 -13.75167175 242.79425079 -14.15097046 243.96205139 C-14.6884642 245.51985573 -14.6884642 245.51985573 -15.23681641 247.10913086 C-15.55373444 248.03124863 -15.87065247 248.95336639 -16.19717407 249.90342712 C-17 252 -17 252 -18 253 C-20.70838086 253.09514592 -23.39118513 253.12554932 -26.09985352 253.11352539 C-26.94856018 253.11367142 -27.79726685 253.11381744 -28.67169189 253.1139679 C-31.49078891 253.11326848 -34.30982071 253.10547478 -37.12890625 253.09765625 C-39.07803817 253.09579217 -41.02717055 253.09436822 -42.9763031 253.09336853 C-48.11706832 253.08954255 -53.25780547 253.07971159 -58.39855957 253.06866455 C-63.64005148 253.05845215 -68.8815479 253.05387128 -74.12304688 253.04882812 C-84.41537694 253.03808939 -94.70768614 253.02101201 -105 253 C-104.43943797 249.89036584 -103.74918658 247.07732915 -102.51977539 244.16748047 C-102.06538841 243.0822963 -102.06538841 243.0822963 -101.6018219 241.97518921 C-101.27044724 241.19704865 -100.93907257 240.41890808 -100.59765625 239.6171875 C-100.24875839 238.78740387 -99.89986053 237.95762024 -99.54039001 237.10269165 C-98.38536234 234.358307 -97.22387795 231.61670263 -96.0625 228.875 C-95.24625148 226.93835889 -94.43050442 225.00150635 -93.61523438 223.06445312 C-91.92007767 219.03791315 -90.22275997 215.0122944 -88.52392578 210.98730469 C-85.03442448 202.71526439 -81.57112771 194.43228791 -78.10787964 186.14923096 C-76.23985351 181.68229025 -74.36981735 177.21619114 -72.5 172.75 C-71.74999054 170.95833729 -70.99999054 169.16667063 -70.25 167.375 C-47.74999999 113.62499998 -47.74999999 113.62499998 -46.62506104 110.93765259 C-45.87485114 109.14547999 -45.1246477 107.3533047 -44.37445068 105.56112671 C-42.50271478 101.08967866 -40.63086795 96.61827712 -38.75878906 92.14697266 C-35.34526788 83.99375064 -31.93261099 75.84017177 -28.52404785 67.68487549 C-26.97171176 63.97096712 -25.41873517 60.25732673 -23.86572266 56.54370117 C-23.14958912 54.8307787 -22.43374359 53.11773578 -21.71826172 51.40454102 C-14.54938365 34.23935146 -7.26526687 17.12527191 0 0 Z " fill="#1C2938" transform="translate(2128,8)"/>
<path d="M0 0 C98.01 0 196.02 0 297 0 C297 19.8 297 39.6 297 60 C231.99 60 166.98 60 100 60 C100 70.23 100 80.46 100 91 C165.01 91 230.02 91 297 91 C297 112.78 297 134.56 297 157 C198.99 157 100.98 157 0 157 C0 105.19 0 53.38 0 0 Z " fill="#AE3B3C" transform="translate(1136,105)"/>
<path d="M0 0 C2.97551795 1.77603298 5.42755188 3.85510377 7 7 C7.99006405 15.4155444 4.75833284 24.48333432 1 32 C58.09 32 115.18 32 174 32 C174 50.64290545 167.96670803 66.04534064 154.82421875 79.33984375 C140.57266766 92.7635039 124.05100374 97.48882757 104.84570312 97.35644531 C103.35142904 97.35723786 101.85715517 97.35934023 100.36288452 97.36264038 C96.33856908 97.36773506 92.31451321 97.35432215 88.29023933 97.33711338 C84.06894728 97.32199073 79.84765738 97.32324951 75.62634277 97.32244873 C68.54870209 97.3187679 61.47115908 97.30385397 54.39355469 97.28125 C45.30618324 97.25228665 36.21888995 97.24201634 27.13147736 97.2375679 C19.31012707 97.23359153 11.48879378 97.22109727 3.66745567 97.20722103 C1.1552217 97.20312332 -1.35701168 97.20019728 -3.86924744 97.19742584 C-7.80915018 97.19253664 -11.74900545 97.18233969 -15.68888474 97.16798782 C-17.13570604 97.16346315 -18.58253373 97.16062576 -20.02936172 97.15958023 C-22.00050038 97.1578359 -23.97162961 97.14932413 -25.94274902 97.14044189 C-27.04659691 97.13746723 -28.15044479 97.13449257 -29.28774261 97.13142776 C-32 97 -32 97 -35 96 C-35.391875 97.2375 -35.78375 98.475 -36.1875 99.75 C-37.49387571 103.68903306 -39.00376829 107.50322678 -40.61328125 111.328125 C-41.28484253 112.92769043 -41.28484253 112.92769043 -41.9699707 114.55957031 C-42.47983521 115.76758301 -42.47983521 115.76758301 -43 117 C-41.15245872 116.94695457 -41.15245872 116.94695457 -39.26759338 116.89283752 C-27.4069863 116.55257244 -15.54631813 116.21450495 -3.68559361 115.87835789 C2.40567912 115.70565951 8.49693121 115.5323001 14.58813477 115.35717773 C101.83548797 112.85062173 101.83548797 112.85062173 137.83911133 112.70483398 C139.90200373 112.69280793 141.96485526 112.67166157 144.02758789 112.64331055 C147.15009695 112.60119397 150.27177641 112.58461218 153.39453125 112.57421875 C154.77352348 112.54795662 154.77352348 112.54795662 156.18037415 112.52116394 C162.3821219 112.5426974 162.3821219 112.5426974 165.56933594 114.90161133 C167.85671364 118.25656207 167.64998621 121.09205823 167 125 C165.875 127.4375 165.875 127.4375 164 129 C159.79172282 129.9516659 156.04476644 130.02847526 151.7578125 129.6953125 C150.52289062 129.60636719 149.28796875 129.51742187 148.015625 129.42578125 C145.52343449 129.2331119 143.03124673 129.04040688 140.5390625 128.84765625 C114.69549621 126.98292738 88.77716572 126.84878758 62.87953377 126.89860606 C58.95724813 126.90501974 55.03496098 126.90545718 51.1126709 126.90663147 C43.74366639 126.90969329 36.3746774 126.91783429 29.00567961 126.92798096 C20.59155686 126.93930582 12.17743323 126.94469303 3.76330471 126.94967639 C-13.49113904 126.96002364 -30.74556786 126.97751898 -48 127 C-48.18786733 127.57634217 -48.37573465 128.15268435 -48.56929493 128.74649143 C-50.07763179 133.32985834 -51.66626293 137.84578481 -53.47338867 142.32202148 C-53.94265778 143.48873383 -54.41192688 144.65544617 -54.89541626 145.85751343 C-55.26660017 146.77500933 -55.26660017 146.77500933 -55.64528275 147.7110405 C-56.44017003 149.67597454 -57.23175968 151.64220996 -58.02255249 153.60879517 C-59.15505717 156.42467751 -60.28868657 159.24010296 -61.42312622 162.0552063 C-95.14046821 245.76085356 -129.30956007 331.6658758 -149.91796875 507.71875 C-148.45735197 514.06731707 -148.72388901 519.5389288 -151.75 525.375 C-156.03199286 530.37065834 -159.31998383 532.74476037 -165.9375 533.375 C-169.12906909 533.31058301 -169.79089325 533.17058709 -172.375 531.0625 C-196.9554133 484.73787493 -153.67320476 381.35787195 -139.89453125 336.12939453 C-136.37212108 324.66721868 -132.65689369 313.26471394 -128.85961914 301.89086914 C-128.59793945 301.10321671 -128.33625977 300.31556427 -128.06665039 299.50404358 C-127.58163953 298.04687044 -127.09272733 296.59098749 -126.59912109 295.13670349 C-125.65053756 292.28773788 -125 290.02672063 -125 287 C-125.556875 287.56847656 -126.11375 288.13695312 -126.6875 288.72265625 C-130.8674051 292.9519859 -135.07883935 297.07189821 -139.59765625 300.9375 C-141.51875356 302.58683233 -143.41705252 304.25471353 -145.30859375 305.9375 C-164.80537308 323.20119086 -187.8885399 342.85438418 -215.296875 342.26953125 C-222.11173602 341.77351288 -225.97779517 339.30462791 -230.75 334.5625 C-238.10648148 325.25808936 -238.6388922 313.65538938 -238.4375 302.25 C-238.41876831 300.27700928 -238.41876831 300.27700928 -238.3996582 298.26416016 C-238.22388499 288.53484305 -237.32327458 279.45007635 -235 270 C-234.71382812 268.78441406 -234.42765625 267.56882812 -234.1328125 266.31640625 C-233.45708131 263.5330373 -232.75087217 260.76384861 -232 258 C-234.50946519 259.60178629 -236.18737164 260.69719608 -238 263 C-238.51305338 265.58195154 -238.62472942 268.05699826 -238.75390625 270.68359375 C-239 273 -239 273 -240.5625 275.625 C-244.04540755 277.58971708 -247.08915784 277.46594018 -251 277 C-251.61617187 276.73058594 -252.23234375 276.46117187 -252.8671875 276.18359375 C-255.271882 275.75030345 -255.271882 275.75030345 -257.8203125 277.921875 C-258.92906991 278.85611049 -260.03011885 279.79954 -261.125 280.75 C-273.9289727 291.3092875 -290.56266966 303.77235194 -308 303 C-312.65610991 301.93023463 -315.29683938 299.89739277 -318 296 C-318.66644531 296.68964844 -319.33289062 297.37929688 -320.01953125 298.08984375 C-326.35025422 304.54452493 -332.90142964 310.38332097 -340 316 C-340.81082031 316.67804688 -341.62164063 317.35609375 -342.45703125 318.0546875 C-360.68194274 333.18813582 -383.76046498 345.27882017 -407.984375 343.8203125 C-416.21409892 342.68116992 -423.88480876 339.24547149 -429 332.5 C-433.2862656 326.07060161 -433.25623169 319.57492201 -433.125 312.125 C-433.11597656 311.15046875 -433.10695313 310.1759375 -433.09765625 309.171875 C-433.07421623 306.78099272 -433.04140442 304.39062739 -433 302 C-434.7015625 301.2884375 -434.7015625 301.2884375 -436.4375 300.5625 C-440 299 -440 299 -441 298 C-441.28727578 293.69086333 -440.99512373 291.99024747 -439 288 C-435.7 288.33 -432.4 288.66 -429 289 C-428.690625 287.845 -428.38125 286.69 -428.0625 285.5 C-421.03506462 264.61472477 -404.32421312 243.40534552 -385 233 C-376.31248088 229.39885039 -367.90154917 227.2789875 -358.75 230.125 C-354.57013568 231.87703894 -352.54775645 234.29417243 -350 238 C-347.69665418 244.91003745 -348.83746744 250.98578328 -351.75390625 257.53515625 C-361.3334513 276.4840369 -380.09277038 289.75728849 -399.96484375 296.39453125 C-405.06681356 297.90959679 -409.64635638 299.23838116 -415 299 C-416.98053695 312.61282991 -416.98053695 312.61282991 -412 325 C-406.77428329 329.9708037 -402.33813182 330.36153295 -395.37109375 330.26953125 C-372.61977402 328.45048019 -352.88651041 310.8952339 -337 296 C-335.65125534 294.82706935 -334.29747083 293.6598956 -332.9375 292.5 C-326.10842378 286.55254633 -319.79747297 280.07080767 -313.91015625 273.1953125 C-311.02294348 269.87708432 -308.02871822 266.65767412 -305.04711914 263.42456055 C-302.48114305 260.63568594 -299.96132981 257.81891254 -297.5 254.9375 C-278.33722938 233.03065722 -278.33722938 233.03065722 -264.25 231.75 C-257.75698744 231.4902795 -252.13055247 231.68073756 -247 236 C-243.9375323 239.71248819 -241.5245048 243.4264856 -240 248 C-239.05640625 247.12988281 -239.05640625 247.12988281 -238.09375 246.2421875 C-233.46437473 242.01718537 -228.83104195 238.00528661 -223.73828125 234.3515625 C-221.73521155 232.87273532 -221.73521155 232.87273532 -219.375 230.125 C-217 228 -217 228 -214.0625 227.375 C-209.80918173 228.24302414 -207.88050008 229.77658324 -205 233 C-203.77674157 237.99497194 -205.25712719 240.73990821 -207.625 245.1875 C-217.80345821 264.36535151 -225.66137448 294.25876751 -219.75 315.6875 C-218.09509015 320.28876803 -216.23062797 323.90544482 -211.69140625 326.1328125 C-204.88262579 328.32664307 -197.16498697 326.2845987 -190.78125 323.4765625 C-176.44096811 315.86332295 -163.36146789 305.2429558 -151.4765625 294.265625 C-149.50025801 292.45764928 -147.50937707 290.67639168 -145.49609375 288.91015625 C-144.80451172 288.30220215 -144.11292969 287.69424805 -143.40039062 287.06787109 C-141.67440867 285.58098469 -139.92531993 284.12076673 -138.16210938 282.67822266 C-118.49110828 266.50366354 -110.29063112 250.41634901 -102.96087646 226.34817505 C-99.24885952 214.27579403 -94.73539469 202.49371023 -90.27337646 190.68395996 C-88.82322589 186.84503712 -87.38530973 183.00160918 -85.94970703 179.15722656 C-79.43387731 161.7194371 -72.82497238 144.31930857 -66 127 C-66.58305908 127.06203613 -67.16611816 127.12407227 -67.7668457 127.18798828 C-76.05699937 128.00959825 -84.35041212 128.37921919 -92.66925049 128.75799561 C-136.39611914 130.67812176 -136.39611914 130.67812176 -179 140 C-179.12375 141.11375 -179.2475 142.2275 -179.375 143.375 C-180 147 -180 147 -182 149 C-192.53210112 152.47605074 -206.56678098 150.38019214 -217.3125 148.75 C-218.44764038 148.58612793 -218.44764038 148.58612793 -219.60571289 148.41894531 C-224.89493107 147.52240783 -231.08544451 145.91455549 -235 142 C-235.5625 138.75 -235.5625 138.75 -235 135 C-226.12420546 125.18441545 -205.99922975 126.01142191 -193.8125 125 C-192.84414215 124.91695618 -191.8757843 124.83391235 -190.87808228 124.74835205 C-156.0818194 121.76784279 -121.21151731 119.94189233 -86.31518555 118.64599609 C-85.35223572 118.6092981 -84.38928589 118.5726001 -83.39715576 118.53479004 C-81.61874158 118.46745875 -79.84022154 118.402836 -78.06158447 118.3416748 C-77.26065369 118.31126099 -76.4597229 118.28084717 -75.63452148 118.24951172 C-74.95260239 118.22525116 -74.27068329 118.2009906 -73.56809998 118.17599487 C-69.7012626 117.91099602 -65.852201 117.42802233 -62 117 C-58.37 108.09 -54.74 99.18 -51 90 C-52.65 89.34 -54.3 88.68 -56 88 C-70.57578478 78.31770131 -80.57199013 65.01156336 -85 48 C-86 43 -86 43 -86 32 C-66.2 31.67 -46.4 31.34 -26 31 C-22.04 22.42 -18.08 13.84 -14 5 C-9.18004434 0.18004434 -6.68607426 -0.67993976 0 0 Z M-391.37890625 259.31640625 C-398.52384415 266.85897548 -405.4678925 276.14338588 -409 286 C-392.63341017 283.66191574 -378.27110204 273.50095545 -367.609375 261.25390625 C-364.10625104 256.57595414 -362.12781305 252.87940012 -362 247 C-371.87211927 239.10230458 -384.30785674 252.43113144 -391.37890625 259.31640625 Z M-283.0625 263.6875 C-288.93031806 269.70110236 -299 280.33791651 -299 289 C-294.06261049 288.48381837 -290.41920859 286.88112106 -286.25 284.3125 C-285.61529785 283.92674805 -284.9805957 283.54099609 -284.32666016 283.14355469 C-275.75128648 277.7800633 -267.74037995 271.49907493 -260 265 C-259.45569336 264.5477002 -258.91138672 264.09540039 -258.35058594 263.62939453 C-256.1895205 261.68834027 -255.04064197 260.61166169 -254.84375 257.6484375 C-255.0603125 256.89820313 -255.276875 256.14796875 -255.5 255.375 C-255.79390625 254.24191406 -255.79390625 254.24191406 -256.09375 253.0859375 C-257.08519002 250.80391607 -258.06439203 249.55046149 -260 248 C-268.45587387 248 -277.30647675 258.27006635 -283.0625 263.6875 Z " fill="#000000" transform="translate(2434,164)"/>
<path d="M0 0 C21.45 0 42.9 0 65 0 C65.33 40.59 65.66 81.18 66 123 C76.40951333 110.19899018 76.40951333 110.19899018 86.54296875 97.20703125 C89.14402636 93.80145803 91.78696242 90.4296385 94.4375 87.0625 C94.89745361 86.47807129 95.35740723 85.89364258 95.83129883 85.29150391 C97.2204271 83.52732315 98.61017398 81.7636311 100 80 C106.02396237 72.3518218 112.0268049 64.68791823 118 57 C124.40740616 48.75322189 130.85244615 40.53681931 137.31347656 32.33203125 C138.64690442 30.63835086 139.97983019 28.94427691 141.3125 27.25 C141.97209717 26.41178711 141.97209717 26.41178711 142.64501953 25.55664062 C145.35374274 22.10970108 148.04840795 18.65220623 150.734375 15.1875 C151.68703247 13.95918457 151.68703247 13.95918457 152.65893555 12.70605469 C153.90905672 11.09309855 155.15795694 9.47919523 156.40551758 7.86425781 C156.97423584 7.13045898 157.5429541 6.39666016 158.12890625 5.640625 C158.63494385 4.98610352 159.14098145 4.33158203 159.66235352 3.65722656 C161 2 161 2 163 0 C165.7081604 -0.24050903 165.7081604 -0.24050903 169.19384766 -0.22705078 C170.49504547 -0.22689972 171.79624329 -0.22674866 173.13687134 -0.22659302 C174.56260327 -0.21637893 175.98833365 -0.20594692 177.4140625 -0.1953125 C178.86851813 -0.19158295 180.32297627 -0.1887357 181.7774353 -0.18673706 C185.60798056 -0.179096 189.43837446 -0.15944357 193.26885986 -0.1373291 C197.17661491 -0.11688078 201.08439439 -0.10773752 204.9921875 -0.09765625 C212.66152738 -0.07619802 220.33074249 -0.04205651 228 0 C226.4088854 4.2536509 224.49031491 7.05546004 221.5 10.5 C217.53390337 15.13955764 213.73435294 19.86842279 210.03100586 24.72290039 C209.61214111 25.27196045 209.19327637 25.82102051 208.76171875 26.38671875 C208.3239209 26.96083496 207.88612305 27.53495117 207.43505859 28.12646484 C204.66339399 31.74500077 201.86188666 35.34039594 199.0625 38.9375 C198.46429443 39.70626465 197.86608887 40.4750293 197.24975586 41.26708984 C192.29404345 47.63092763 187.31625738 53.97716551 182.32666016 60.31445312 C180.04913797 63.20808823 177.77472459 66.10416552 175.5 69 C172.78661257 72.45427351 170.07274646 75.90816048 167.35546875 79.359375 C161.6162735 86.65152896 155.90878021 93.96769961 150.21630859 101.29638672 C145.98470446 106.7416977 141.73389093 112.17147113 137.46289062 117.5859375 C135.27295157 120.36508256 133.10761283 123.15781202 131 126 C132.29814634 128.7527505 133.73274267 131.13220513 135.58203125 133.546875 C136.09531982 134.21879883 136.6086084 134.89072266 137.13745117 135.58300781 C137.69021729 136.29811523 138.2429834 137.01322266 138.8125 137.75 C139.38782471 138.49862305 139.96314941 139.24724609 140.5559082 140.01855469 C145.05515438 145.84463499 149.67301611 151.56741716 154.33544922 157.26318359 C158.87811433 162.82050979 163.25863797 168.48466041 167.61328125 174.19091797 C170.36989823 177.78713836 173.1548491 181.36141148 175.9375 184.9375 C176.53594727 185.70658691 177.13439453 186.47567383 177.75097656 187.26806641 C183.14580177 194.19567909 188.56778393 201.10169142 194 208 C228 251.17620818 228 251.17620818 228 253 C219.60272019 253.34954319 211.2085357 253.6150117 202.8057518 253.77718258 C198.90237128 253.85507664 195.00400715 253.96040938 191.10351562 254.1315918 C163.78636092 255.29951947 163.78636092 255.29951947 157.39086914 249.82495117 C154.67982177 246.80248041 152.73867156 243.57081595 150.98937988 239.92019653 C149.36478245 236.76716461 147.16622462 234.1900884 144.9375 231.4375 C144.11914895 230.37488848 143.30364617 229.31007163 142.4921875 228.2421875 C138.05221826 222.45015784 133.51704622 216.73194278 129 211 C122.37047168 202.58297964 115.77238077 194.14238653 109.19873047 185.68164062 C104.26341069 179.33216972 99.30149252 173.00408164 94.32666016 166.68554688 C91.59423426 163.21394798 88.86554304 159.73940969 86.13745117 156.2644043 C83.77603136 153.25715498 81.41072453 150.25308673 79.0390625 147.25390625 C78.55115234 146.63580078 78.06324219 146.01769531 77.56054688 145.38085938 C76.63867796 144.21315875 75.71560333 143.04640844 74.79101562 141.88085938 C71.72598823 137.99475919 68.88487349 134.03882289 66 130 C65.67 170.59 65.34 211.18 65 253 C43.55 253 22.1 253 0 253 C0 169.51 0 86.02 0 0 Z " fill="#1C2938" transform="translate(2646,8)"/>
<path d="M0 0 C79.53 0 159.06 0 241 0 C241 21.12 241 42.24 241 64 C186.88 64 132.76 64 77 64 C77 126.37 77 188.74 77 253 C51.59 253 26.18 253 0 253 C0 169.51 0 86.02 0 0 Z " fill="#1C2938" transform="translate(0,8)"/>
<path d="M0 0 C25.41 0 50.82 0 77 0 C77 62.7 77 125.4 77 190 C127.82 190 178.64 190 231 190 C231 211.12 231 232.24 231 254 C154.77 254 78.54 254 0 254 C0 170.18 0 86.36 0 0 Z " fill="#1C2938" transform="translate(262,8)"/>
<path d="M0 0 C98.01 0 196.02 0 297 0 C297 21.78 297 43.56 297 66 C198.99 66 100.98 66 0 66 C0 44.22 0 22.44 0 0 Z " fill="#AC3A3C" transform="translate(1136,8)"/>
<path d="M0 0 C86.13 0 172.26 0 261 0 C261 21.78 261 43.56 261 66 C174.87 66 88.74 66 0 66 C0 44.22 0 22.44 0 0 Z " fill="#1C2938" transform="translate(1753,8)"/>
<path d="M0 0 C-1.30724244 2.77598125 -2.76207058 5.16264358 -4.625 7.59765625 C-5.42321167 8.65424438 -5.42321167 8.65424438 -6.23754883 9.73217773 C-7.10996216 10.88568726 -7.10996216 10.88568726 -8 12.0625 C-30.31609941 42.02699116 -49.29862113 74.15056183 -67 107 C-67.51256348 107.94391602 -68.02512695 108.88783203 -68.55322266 109.86035156 C-76.7163837 124.9201199 -83.96774698 140.38506424 -91 156 C-91.29193237 156.64809631 -91.58386475 157.29619263 -91.88464355 157.96392822 C-100.18604205 176.42398916 -108.0158858 194.99491143 -115 214 C-115.43908691 215.18319824 -115.87817383 216.36639648 -116.33056641 217.58544922 C-148.62653175 304.14277979 -148.62653175 304.14277979 -140.75390625 393.078125 C-134.43115592 406.7174455 -126.23150763 413.2484472 -112.25 418.375 C-77.70149727 425.1993956 -40.48922449 402.36329969 -13.0625 384.1875 C1.06014476 374.70609281 14.75383212 364.66941676 28 354 C28.96268799 353.2265625 28.96268799 353.2265625 29.94482422 352.4375 C38.52210339 345.53752778 47.0081859 338.53827218 55.37597656 331.38574219 C57.06714221 329.94270908 58.76374619 328.50625183 60.4609375 327.0703125 C67.4570255 321.13417922 74.27987123 315.04776667 80.9921875 308.79296875 C83.59154113 306.37132771 86.22475007 303.9909822 88.875 301.625 C100.00746289 291.61829178 110.79895348 281.32790938 121.30249023 270.66064453 C124.76995384 267.15432046 128.23770658 263.74408954 132.00390625 260.55859375 C135.83443076 257.26971208 139.08933253 253.6149267 142.42480469 249.83300781 C145.37226427 246.59046696 148.43241462 243.48753059 151.5390625 240.3984375 C152.11436707 239.82635559 152.68967163 239.25427368 153.28240967 238.66485596 C155.06139133 236.89965865 156.84274497 235.13689194 158.625 233.375 C168.43143694 223.7405202 168.43143694 223.7405202 177.66162109 213.56103516 C179.34249039 211.600532 181.14285816 209.79310247 183 208 C186.10246002 204.93882747 188.98106424 201.76857732 191.8203125 198.46484375 C194.81343428 195.08014868 197.9082997 191.79453391 201 188.5 C205.23387134 183.98364946 209.46049981 179.47439335 213.47265625 174.7578125 C214.59083397 173.4709072 215.75100641 172.22016708 216.93359375 170.9921875 C220.91478861 166.77868952 223 164.06051317 223 158 C222.79375 156.96875 222.5875 155.9375 222.375 154.875 C222 152 222 152 223.0625 149.375 C225.4671533 146.42736047 227.60477555 144.73089874 231 143 C234.125 142.9375 234.125 142.9375 237 144 C241.66227275 148.91428749 242.26921405 152.13295571 242.234375 158.69140625 C241.81680899 164.58604647 240.40464187 170.27273999 239 176 C239.54527344 175.32195312 240.09054687 174.64390625 240.65234375 173.9453125 C245.91647598 167.44838349 251.30465539 161.12556849 257 155 C257.63421875 154.31164062 258.2684375 153.62328125 258.921875 152.9140625 C268.95614379 142.42369058 279.6514047 134.033231 294.5 133.4375 C306.41663416 133.84429273 312.70764071 139.14234227 320.75 147.37890625 C324.5999992 151.86388796 325.45442218 154.98830802 325.3203125 160.8125 C324.71947547 164.9157773 322.35560791 166.97160779 319.1875 169.375 C315.46830225 170.43762793 313.68930429 170.33578259 310 169 C308.25835012 166.34332087 306.92131016 163.58949771 305.5234375 160.73828125 C302.64134007 155.55789587 298.56342774 153.28973224 293 151.625 C286.28922362 150.29830141 281.13328118 151.95352082 275.37890625 155.37109375 C247.96489477 174.14226417 225.91124548 210.59852082 215.140625 241.35546875 C214.02168119 243.94973232 213.26799716 245.34602159 211 247 C206.11554047 247.63025284 204.11955831 247.74637221 200 245 C197.49052055 241.23578082 197.47788846 238.35374413 198 234 C198.85666022 230.72470124 200.04231742 227.61665789 201.28125 224.46875 C201.61419067 223.59222778 201.94713135 222.71570557 202.29016113 221.81262207 C203.34776287 219.03683572 204.42351727 216.26851129 205.5 213.5 C206.22387055 211.60983959 206.94653947 209.71921853 207.66796875 207.828125 C209.43145612 203.21330479 211.21124864 198.60508329 213 194 C212.67 193.67 212.34 193.34 212 193 C211.45472656 193.60585938 210.90945313 194.21171875 210.34765625 194.8359375 C208.75144595 196.60950449 207.15507923 198.38293071 205.55859375 200.15625 C203.96627726 201.92603077 202.37495102 203.69670363 200.78515625 205.46875 C173.58381089 235.76898281 173.58381089 235.76898281 161.125 247.8125 C159.31261637 249.67818903 157.62994414 251.5823733 155.93920898 253.55639648 C151.77042674 258.33203913 147.33427248 262.80970096 142.84765625 267.28515625 C141.55921059 268.575037 141.55921059 268.575037 140.24473572 269.89097595 C138.43822985 271.69815861 136.63047538 273.50409392 134.8215332 275.30883789 C132.0706319 278.05438393 129.32510779 280.80522546 126.58007812 283.55664062 C124.81542468 285.3206332 123.05046103 287.0843155 121.28515625 288.84765625 C120.47345474 289.66138199 119.66175323 290.47510773 118.82545471 291.31349182 C114.56546956 295.55620896 110.2333011 299.64591522 105.66465759 303.55552673 C103.49962089 305.43419394 101.49533452 307.44327057 99.5 309.5 C96.21145472 312.82769463 92.83618376 315.95336441 89.28515625 318.99609375 C86.93513231 321.05688398 84.64949784 323.17489502 82.36547852 325.30810547 C76.93508927 330.3789971 71.39936784 335.20999944 65.6015625 339.86328125 C63.05013271 341.95882494 60.61673227 344.13963155 58.1875 346.375 C53.81377979 350.35611856 49.25671222 354.0166632 44.58569336 357.63671875 C40.74923706 360.6128291 36.9744948 363.65033135 33.23095703 366.74243164 C2.6823771 391.91846738 -31.65169467 415.61611538 -69.375 428.375 C-70.36153564 428.70918945 -71.34807129 429.04337891 -72.36450195 429.38769531 C-82.67166699 432.74758025 -92.53273498 434.39332547 -103.375 434.375 C-104.37797119 434.37338867 -105.38094238 434.37177734 -106.41430664 434.37011719 C-114.27413285 434.24046533 -120.7372272 433.15197727 -128 430 C-128.71542969 429.73445313 -129.43085937 429.46890625 -130.16796875 429.1953125 C-142.20665057 424.14915844 -150.99303368 412.61495495 -155.88720703 400.87109375 C-184.2509834 327.36496906 -144.05794309 227.92585176 -114.140625 160.10546875 C-110.83053199 152.66592167 -107.39635774 145.28547218 -103.91143799 137.92645264 C-102.99733238 135.99436162 -102.08778743 134.06017927 -101.17919922 132.12548828 C-94.08976466 117.05093318 -86.66836718 102.20102363 -78.50195312 87.67578125 C-76.95257526 84.9155112 -75.42090669 82.14589612 -73.890625 79.375 C-40.83459578 19.83459578 -40.83459578 19.83459578 -23 2 C-20.26920014 1.59467001 -17.55451593 1.24520752 -14.8125 0.9375 C-14.05646484 0.84662109 -13.30042969 0.75574219 -12.52148438 0.66210938 C-8.32281554 0.17778764 -4.23476656 -0.1013102 0 0 Z M237 177 C238 179 238 179 238 179 Z " fill="#000000" transform="translate(1675,260)"/>
<path d="M0 0 C2.97551795 1.77603298 5.42755188 3.85510377 7 7 C7.99006405 15.4155444 4.75833284 24.48333432 1 32 C58.09 32 115.18 32 174 32 C174 50.64290545 167.96670803 66.04534064 154.82421875 79.33984375 C140.63368613 92.70603007 124.13315366 97.47148528 105.00439453 97.40405273 C103.52634163 97.40976778 102.04829314 97.41673639 100.57025146 97.42485046 C96.58662137 97.44267284 92.60321286 97.44163414 88.619555 97.43590808 C85.2799314 97.4328 81.94034938 97.43892663 78.60073173 97.44494683 C70.71474244 97.45895489 62.82886157 97.45746215 54.94287109 97.44604492 C46.83858811 97.43457009 38.73463632 97.4486371 30.63039696 97.4754414 C23.64316977 97.49767611 16.65604595 97.50421827 9.66878593 97.49836498 C5.5084609 97.49501239 1.34834801 97.4972963 -2.81194687 97.51461601 C-6.72740213 97.53020755 -10.64237103 97.5259963 -14.55780792 97.50731087 C-15.98430674 97.5036583 -17.41084259 97.50663463 -18.83730698 97.51719666 C-37.51724782 97.64481476 -54.44746542 91.28226504 -68.0625 78.4375 C-80.89356257 65.12751752 -86 50.26756624 -86 32 C-66.2 31.67 -46.4 31.34 -26 31 C-22.04 22.42 -18.08 13.84 -14 5 C-9.18004434 0.18004434 -6.68607426 -0.67993976 0 0 Z " fill="#1C2938" transform="translate(2434,164)"/>
<path d="M0 0 C1.15312626 -0.00128164 1.15312626 -0.00128164 2.329548 -0.00258917 C4.89518858 -0.00423104 7.46076319 0.00125617 10.02639771 0.00672913 C11.8696238 0.0070113 13.71285002 0.00685267 15.55607605 0.00628662 C20.55350512 0.00599984 25.55091016 0.01187739 30.54833364 0.01886058 C35.77337109 0.02511387 40.9984091 0.02569948 46.22344971 0.02688599 C56.11493487 0.02999347 66.00640897 0.03819901 75.89788926 0.04823548 C87.16020682 0.0594147 98.42252491 0.06491163 109.68484664 0.06993091 C132.84964855 0.0803821 156.0144353 0.09872036 179.17922974 0.12025452 C179.17922974 21.90025452 179.17922974 43.68025452 179.17922974 66.12025452 C95.35922974 66.12025452 11.53922974 66.12025452 -74.82077026 66.12025452 C-72.29926776 45.94823446 -60.47242775 27.26195506 -44.50827026 14.74525452 C-31.58823351 5.03997307 -16.12507703 -0.0661425 0 0 Z " fill="#5F313A" transform="translate(1552.8207702636719,7.8797454833984375)"/>
<path d="M0 0 C1.39701975 -0.00463489 2.79403824 -0.00966044 4.1910553 -0.01504517 C7.97245149 -0.0281094 11.75382997 -0.03460278 15.53524518 -0.03905582 C17.90414936 -0.04199716 20.27304882 -0.04610399 22.64195061 -0.05056 C30.07220833 -0.06422124 37.50245513 -0.07389374 44.93272454 -0.07776189 C53.47501065 -0.0822348 62.01713613 -0.09975273 70.55937344 -0.12876248 C77.18473491 -0.15047178 83.8100515 -0.16047113 90.43544811 -0.16180301 C94.3817829 -0.16284474 98.32796643 -0.16861611 102.27426338 -0.18662262 C105.99341445 -0.20326348 109.71230316 -0.20518245 113.4314785 -0.19648361 C115.4230683 -0.19536241 117.41465004 -0.20895663 119.40618896 -0.22323608 C130.8474685 -0.17104085 142.19259481 1.33645855 152.39624023 6.78613281 C153.06204102 7.13313232 153.7278418 7.48013184 154.41381836 7.83764648 C169.90374382 16.19690351 180.95100602 29.60065101 186.24389648 46.45800781 C188.0074592 53.44663772 188.20874023 58.65638291 188.20874023 66.16113281 C102.40874023 66.16113281 16.60874023 66.16113281 -71.79125977 66.16113281 C-71.79125977 47.29043663 -66.40291957 31.5119474 -52.86547852 17.95410156 C-37.87431346 3.85474846 -20.05536915 0.01725414 0 0 Z " fill="#1C2938" transform="translate(2419.791259765625,7.8388671875)"/>
<path d="M0 0 C2.87395969 2.65841271 3.84247363 4.15985938 4.5625 8 C3.78698584 12.13607554 2.38677089 13.54999553 -1 16 C-4.46144178 16.35201103 -6.86128812 16.56935594 -10 15 C-17.78712913 14.01449196 -22.95663263 16.00790815 -29.1484375 20.58984375 C-45.92661186 34.51278493 -60.41449391 59.16683749 -63 81 C-63.55111509 87.45305674 -63.20230495 92.30701342 -60 98 C-56.21785404 100.52143064 -53.36756935 100.81291477 -49 100 C-36.6833587 95.04211269 -29.7714395 83.68792845 -24.74755859 71.92236328 C-19.58206721 58.63918917 -18.23495066 46.56183407 -23.22265625 33.04296875 C-24.10603793 29.5849068 -23.92929502 27.42677539 -23 24 C-20.8801066 21.49467144 -19.40480254 20.14189925 -16.06640625 19.8046875 C-12.33678592 20.04439845 -10.30746132 20.77639176 -7.25 23 C-5.3534334 25.52875546 -4.31334772 27.39397103 -3.125 30.25 C0.85348047 39.73836017 6.79996358 45.53590768 16 50 C16.67417969 50.3403125 17.34835938 50.680625 18.04296875 51.03125 C28.24497936 55.29359873 41.5212278 54.01097737 51.6953125 50.3828125 C58.33941043 47.60265805 64.72817413 44.5447442 71 41 C71.96317139 40.46294434 71.96317139 40.46294434 72.94580078 39.91503906 C83.12741269 34.05440392 87.64561008 27.55164248 92.18701172 16.85644531 C95.18916961 10.00106736 99.21271725 2.68619667 106 -1 C109.9375 -1.375 109.9375 -1.375 113 -1 C116.0168217 4.33745377 116.16341666 7.60233465 114.93359375 13.5703125 C114 16 114 16 112.16455078 18.17626953 C109.66111783 21.44208338 108.0541087 24.85961221 106.43359375 28.609375 C105.95334496 29.69874359 105.95334496 29.69874359 105.46339417 30.81011963 C104.79013181 32.34157099 104.1205114 33.87462805 103.4543457 35.40917969 C102.4451182 37.7324626 101.42377436 40.05011082 100.40039062 42.3671875 C97.27223178 49.48948129 94.25579215 56.54311726 92 64 C93.64706935 62.06353903 95.29293416 60.12608608 96.9375 58.1875 C97.43894531 57.59654541 97.94039062 57.00559082 98.45703125 56.39672852 C101.5180568 52.77972671 104.52727661 49.12777732 107.5 45.4375 C111.6216986 40.37032215 115.98912602 35.57433941 120.4296875 30.7890625 C122.58077429 28.4549045 124.67925658 26.09253383 126.75 23.6875 C134.4258836 14.90730296 143.51377975 5.37830007 155 2 C158.76050325 2.21285867 160.32333129 2.32333129 163 5 C165.14213728 18.73851506 160.86049053 32.91053196 158.13179016 46.31286621 C152.63094308 70.24514588 152.63094308 70.24514588 159 93 C162.37985607 94.68992804 165.37030114 94.65278305 169 94 C184.89589099 87.80293703 196.62352853 74.53582009 208.4375 62.75 C208.95800934 62.23075958 209.47851868 61.71151917 210.01480103 61.17654419 C215.89109961 55.29862267 221.63904723 49.35824081 227 43 C227.53101318 42.37480469 228.06202637 41.74960937 228.60913086 41.10546875 C230.68215023 38.66191582 232.75348716 36.21709156 234.8125 33.76171875 C237.08579549 31.08415165 239.05948628 28.96034248 242 27 C245.0625 27.1875 245.0625 27.1875 248 28 C250 31 250 31 250.0390625 33.7265625 C248.56738582 38.36289731 245.76199004 40.97765219 242.375 44.375 C241.07991902 45.71536353 239.78563725 47.05649977 238.4921875 48.3984375 C237.87698242 49.02975586 237.26177734 49.66107422 236.62792969 50.31152344 C234.85133226 52.15419707 233.15789734 54.05003784 231.5 56 C228.09967104 59.94681041 224.55129235 63.75198923 221 67.5625 C220.41798828 68.18833984 219.83597656 68.81417969 219.23632812 69.45898438 C184.128186 107.01561336 184.128186 107.01561336 162.703125 109.23828125 C156.64091289 109.42169213 151.83769597 108.88261436 147 105 C137.29364966 93.82691228 137.1679449 79.08783486 138 65 C139.00569038 54.05713082 140.49862898 43.16790255 142.61962891 32.38598633 C143.1049539 29.74433253 143.1049539 29.74433253 143 26 C131.5829294 36.14196822 121.55940774 47.07794189 112 59 C111.06412788 60.15521193 110.12791311 61.31014633 109.19140625 62.46484375 C103.05939762 70.0496481 97.12849526 77.76182295 91.30078125 85.58203125 C87.37482683 90.84712763 83.40963579 96.08219332 79.4375 101.3125 C78.40061035 102.68365967 78.40061035 102.68365967 77.34277344 104.08251953 C76.69211914 104.9382959 76.04146484 105.79407227 75.37109375 106.67578125 C74.79286865 107.43802002 74.21464355 108.20025879 73.61889648 108.9855957 C70.71195236 112.60272675 70.71195236 112.60272675 69 114 C64.91740764 114.38881832 62.27361252 114.58782116 58.5625 112.875 C56.36308738 110.23570486 56.24891314 108.42947 56 105 C56.69771017 102.15502663 57.48488599 99.60465052 58.5 96.875 C58.79463135 96.05547852 59.0892627 95.23595703 59.39282227 94.39160156 C65.04761744 79.05702381 71.62457637 64.04526201 78 49 C77.0807373 49.53834473 76.16147461 50.07668945 75.21435547 50.63134766 C55.95428057 61.82975186 36.57773952 69.22013795 14 64 C6.79537902 61.65807238 1.05257453 58.47755514 -5 54 C-5.3403125 55.11375 -5.680625 56.2275 -6.03125 57.375 C-13.09529807 79.87566912 -22.86180575 100.28330764 -44.484375 111.8359375 C-50.8754636 114.79330458 -58.50791236 115.18930482 -65.31640625 113.38671875 C-71.6918911 110.5545562 -76.57346132 105.6725783 -79.1015625 99.1640625 C-82.15212027 88.07371695 -80.96463293 78.19139115 -79 67 C-79.70382813 67.66644531 -80.40765625 68.33289063 -81.1328125 69.01953125 C-88.74522056 76.15469285 -96.67180045 82.71896842 -105 89 C-105.57508301 89.43731445 -106.15016602 89.87462891 -106.74267578 90.32519531 C-121.8848086 101.77047663 -140.10792886 113.76122234 -160 111 C-166.39076491 109.27119126 -170.36872322 106.50193452 -174 101 C-181.60343732 84.65260977 -174.54765129 63.00346295 -169 47 C-167.41388374 42.73631122 -165.73386879 38.51810956 -164 34.3125 C-163.59716797 33.33345703 -163.19433594 32.35441406 -162.77929688 31.34570312 C-153.87602109 10.43801054 -153.87602109 10.43801054 -147 7 C-143.20122401 6.64826148 -140.85639847 6.47298556 -137.5625 8.5 C-135.38239857 11.98816228 -135.36715955 15.04170269 -136 19 C-137.37923736 22.45046072 -139.20676895 25.5985868 -141.0625 28.8125 C-150.70009797 46.36918449 -160.47945658 68.44739604 -158 89 C-156.82460715 92.4674089 -156.0874111 94.14560556 -153.25 96.375 C-144.00096149 98.94417736 -135.30181971 94.42623169 -127.3125 90.0625 C-116.43406927 83.48451523 -106.72870589 74.78727744 -97.40625 66.1953125 C-95.40084594 64.36570685 -93.36539006 62.59109476 -91.30859375 60.8203125 C-86.53633917 56.65278806 -82.03915427 52.23114259 -77.5625 47.75 C-76.30300537 46.48929687 -76.30300537 46.48929687 -75.01806641 45.203125 C-69.26749669 39.39541929 -63.97422517 33.48900979 -59 27 C-50.42232025 16.17939339 -42.22105803 6.75085391 -30 0 C-29.34515625 -0.36222656 -28.6903125 -0.72445313 -28.015625 -1.09765625 C-19.50981679 -5.00523908 -8.14240009 -4.37277042 0 0 Z " fill="#000000" transform="translate(2567,394)"/>
<path d="M0 0 C25.41 0 50.82 0 77 0 C77 51.81 77 103.62 77 157 C51.59 157 26.18 157 0 157 C0 105.19 0 53.38 0 0 Z " fill="#1C2938" transform="translate(1845,105)"/>
<path d="M0 0 C42.57 0 85.14 0 129 0 C129 19.14 129 38.28 129 58 C86.43 58 43.86 58 0 58 C0 38.86 0 19.72 0 0 Z " fill="#1C2938" transform="translate(92,105)"/>
<path d="M0 0 C12.3372957 11.03738907 14.51696123 26.81698845 16.7265625 42.32421875 C17.3865625 41.99421875 18.0465625 41.66421875 18.7265625 41.32421875 C22.34382886 40.92230027 24.32438546 41.12313023 27.6015625 42.76171875 C30.32076598 46.04075824 30.14549466 47.8315282 30.03857422 51.95874023 C29.53789936 55.75454516 27.88586425 58.45177294 25.8515625 61.63671875 C25.02004562 63.04096579 24.19207035 64.44731451 23.3671875 65.85546875 C22.93341797 66.58636719 22.49964844 67.31726563 22.05273438 68.0703125 C14.78944747 80.41469113 9.87309741 92.26181457 6.54370117 106.20825195 C2.66458215 122.23920299 -2.83606534 137.76636029 -8.2734375 153.32421875 C-8.50649597 153.99203369 -8.73955444 154.65984863 -8.97967529 155.34790039 C-23.93631849 198.09947274 -23.93631849 198.09947274 -36.2734375 206.32421875 C-39.3359375 206.26171875 -39.3359375 206.26171875 -42.2734375 205.32421875 C-46.51782941 197.19335289 -44.29192523 187.55101594 -41.9609375 179.13671875 C-41.69587402 178.16025391 -41.43081055 177.18378906 -41.15771484 176.17773438 C-32.84268579 146.45946084 -21.58302932 117.08657136 -8.40625 89.19140625 C-6.41173378 84.86250294 -5.30806887 80.9647226 -4.5234375 76.26171875 C-4.40766357 75.57255371 -4.29188965 74.88338867 -4.17260742 74.17333984 C-3.85379845 72.22666257 -3.56259419 70.27552087 -3.2734375 68.32421875 C-3.14066406 67.46183594 -3.00789063 66.59945312 -2.87109375 65.7109375 C-0.90735297 50.13551406 -0.53988927 31.90122457 -9.5546875 18.4453125 C-15.61885876 10.96157388 -23.18282044 8.18513684 -32.58984375 7.04296875 C-41.78121396 6.6483482 -50.7171649 10.34536829 -59.2734375 13.32421875 C-59.14066406 12.55078125 -59.00789063 11.77734375 -58.87109375 10.98046875 C-57.87479043 5.10446088 -56.95659285 -0.75510152 -56.2734375 -6.67578125 C-36.67003608 -12.2219393 -17.26506277 -12.72630916 0 0 Z " fill="#000000" transform="translate(1792.2734375,191.67578125)"/>
<path d="M0 0 C0.91092911 -0.00524185 1.82185822 -0.0104837 2.76039124 -0.0158844 C4.68261701 -0.02229391 6.60488207 -0.02098148 8.52709961 -0.01245117 C11.45953608 -0.00394431 14.39002157 -0.03271196 17.32226562 -0.06445312 C19.19400984 -0.06606545 21.06575748 -0.06548702 22.9375 -0.0625 C23.80954575 -0.07373398 24.68159149 -0.08496796 25.58006287 -0.09654236 C31.03060697 -0.0345109 34.29030881 0.69096715 38.53515625 4.43359375 C41.35373445 8.30178011 41.91603216 11.0291521 41.93920898 15.78100586 C41.95189316 17.04259018 41.96457733 18.3041745 41.97764587 19.60398865 C41.97559422 20.97297327 41.97260601 22.34195677 41.96875 23.7109375 C41.97331466 25.1243159 41.97862109 26.53769208 41.9846344 27.95106506 C41.99355463 30.90911899 41.9911552 33.86690278 41.98120117 36.82495117 C41.96971506 40.60571149 41.98992163 44.3855373 42.01911831 48.16617489 C42.03751249 51.0839678 42.03718151 54.0015381 42.03148079 56.91937447 C42.03132795 58.31276319 42.03734119 59.70616737 42.04977226 61.09950066 C42.14343102 73.3182223 42.14343102 73.3182223 39.87915039 77.14672852 C34.48637646 82.40806728 29.58300487 82.88481913 22.41015625 82.83203125 C21.11247314 82.83633652 21.11247314 82.83633652 19.78857422 82.84072876 C17.96646466 82.84276273 16.14433294 82.83727968 14.32226562 82.82470703 C11.54377104 82.80864356 8.76673094 82.82457811 5.98828125 82.84375 C4.21223639 82.84176745 2.43619244 82.83792353 0.66015625 82.83203125 C-0.16500488 82.83810394 -0.99016602 82.84417664 -1.84033203 82.85043335 C-8.11277597 82.77448657 -12.18267867 81.66436728 -16.80664062 77.14453125 C-19.94819059 71.83244106 -19.03619178 65.02085903 -18.99609375 59.05859375 C-18.9987916 57.64664442 -19.00267646 56.23469691 -19.00769043 54.82275391 C-19.01357186 51.87058743 -19.0050672 48.91890667 -18.98632812 45.96679688 C-18.96353837 42.1938714 -18.97666889 38.42208421 -19.00061798 34.64920044 C-19.0151133 31.73567215 -19.01045312 28.82241111 -19.00010681 25.90887451 C-18.99744978 24.51828881 -19.00067311 23.12767838 -19.01002502 21.73712158 C-19.07400516 9.55125377 -19.07400516 9.55125377 -16.74414062 5.72265625 C-11.39846854 0.35408069 -7.29491355 -0.02450059 0 0 Z " fill="#1C2938" transform="translate(2366.46484375,93.56640625)"/>
<path d="M0 0 C2.97551795 1.77603298 5.42755188 3.85510377 7 7 C7.99006405 15.4155444 4.75833284 24.48333432 1 32 C-7.58 32.33 -16.16 32.66 -25 33 C-26.94392322 37.26797769 -28.88156237 41.53864695 -30.8125 45.8125 C-31.10389862 46.4559436 -31.39529724 47.09938721 -31.69552612 47.7623291 C-35.00572347 55.08473212 -38.22481495 62.42542618 -41.171875 69.90234375 C-41.41898727 70.52627518 -41.66609955 71.1502066 -41.92070007 71.79304504 C-43.10093545 74.78107142 -44.26075016 77.77497629 -45.39575195 80.78051758 C-46.02163208 82.38189575 -46.02163208 82.38189575 -46.66015625 84.015625 C-47.01730713 84.95696289 -47.37445801 85.89830078 -47.74243164 86.86816406 C-49 89 -49 89 -50.99121094 89.89501953 C-56.57436438 90.18679833 -62.43232534 83.33905544 -66.4375 79.91796875 C-77.22787622 69.82072433 -83.13386105 57.33069477 -86 43 C-86 39.37 -86 35.74 -86 32 C-66.2 31.67 -46.4 31.34 -26 31 C-22.04 22.42 -18.08 13.84 -14 5 C-9.18004434 0.18004434 -6.68607426 -0.67993976 0 0 Z " fill="#1C2938" transform="translate(2434,164)"/>
<path d="M0 0 C-1.07525002 22.98810383 -9.06355935 40.6893378 -25.6875 56.6875 C-42.09607653 70.9269801 -60.7333861 75.52294952 -82 75 C-79.69903495 69.85248024 -75.92092882 65.85819293 -72.31835938 61.57714844 C-71.04657865 60.05572186 -69.7962716 58.51642391 -68.546875 56.9765625 C-21.74815453 0 -21.74815453 0 0 0 Z " fill="#F1F3F2" transform="translate(1736,186)"/>
<path d="M0 0 C8.25 0 16.5 0 25 0 C21.59171474 10.22485578 16.47290456 21.08499386 7 27 C6.34 27 5.68 27 5 27 C4.89494141 27.68030273 4.78988281 28.36060547 4.68164062 29.06152344 C3.86849058 32.56692243 2.53720699 35.73577814 1.09375 39.015625 C0.80898804 39.67205994 0.52422607 40.32849487 0.23083496 41.00482178 C-0.36868476 42.38411138 -0.97057628 43.76237223 -1.57470703 45.13964844 C-2.50207932 47.25474239 -3.42152793 49.37314801 -4.33984375 51.4921875 C-4.92401909 52.8335338 -5.50863885 54.17468665 -6.09375 55.515625 C-6.36981079 56.15099182 -6.64587158 56.78635864 -6.93029785 57.440979 C-8.8838397 61.8838397 -8.8838397 61.8838397 -10 63 C-15.66875172 62.60905161 -19.88902756 61.44900763 -25 59 C-22.63046441 49.97929694 -18.99323089 41.62027207 -15.26733398 33.09667969 C-14.19417374 30.64027582 -13.13060987 28.17988833 -12.06835938 25.71875 C-8.29053327 17.00413814 -4.34706047 8.4484472 0 0 Z " fill="#EFF1F0" transform="translate(2409,196)"/>
<path d="M0 0 C1.36951502 4.10854507 -0.14541379 6.60237682 -1.8125 10.375 C-2.28139648 11.43932251 -2.28139648 11.43932251 -2.75976562 12.52514648 C-6.16275941 19.87827885 -10.72096763 25.90151 -16 32 C-16.56203125 32.67417969 -17.1240625 33.34835938 -17.703125 34.04296875 C-27.4593273 44.80928291 -42.90037676 52.45744499 -57 55 C-52.64013966 48.87262871 -47.76892062 43.37029853 -42.65625 37.875 C-40.57187667 35.6189724 -38.5509303 33.33932977 -36.5625 31 C-25.87130774 18.75972762 -14.04409817 8.26123422 0 0 Z " fill="#4C313B" transform="translate(1732,205)"/>
<path d="M0 0 C2.97551795 1.77603298 5.42755188 3.85510377 7 7 C7.99006405 15.4155444 4.75833284 24.48333432 1 32 C-7.91 32 -16.82 32 -26 32 C-13.74046601 4.15631263 -13.74046601 4.15631263 -10 1 C-6.34711807 -0.21762731 -3.84245864 -0.39075851 0 0 Z " fill="#000000" transform="translate(2434,164)"/>
<path d="M0 0 C2.3125 0.875 2.3125 0.875 4.3125 2.875 C5.08227336 7.85167427 4.81871194 11.86257612 2.5625 16.375 C-0.5440261 19.82669566 -2.15129572 20.71824446 -6.75 21.1875 C-9.6875 20.875 -9.6875 20.875 -11.625 19.875 C-13.39223308 16.54844361 -12.65743291 13.35224246 -11.6875 9.875 C-9.15350009 5.16900017 -5.87083087 -0.2730619 0 0 Z " fill="#000000" transform="translate(2440.6875,372.125)"/>
</svg>
