<?xml version="1.0" encoding="UTF-8"?>
<svg version="1.1" xmlns="http://www.w3.org/2000/svg" width="523" height="439">
<path d="M0 0 C1.17308852 -0.10221558 1.17308852 -0.10221558 2.36987579 -0.20649612 C24.01997857 -2.08729966 45.71283202 -3.14016703 67.4296875 -3.8527832 C68.93541014 -3.90484366 68.93541014 -3.90484366 70.47155142 -3.95795584 C117.67858218 -5.56080841 161.60137784 -6.79139055 197.92611694 26.95213318 C203.9875137 32.72767106 209.55436654 38.91266811 214.9921875 45.2722168 C215.43742767 45.79080151 215.88266785 46.30938622 216.34140015 46.84368563 C247.4296875 83.16739295 247.4296875 83.16739295 247.4296875 89.8347168 C246.53645751 89.83710515 245.64322752 89.8394935 244.72292995 89.84195423 C222.93661658 89.90122381 201.15041273 89.97684996 179.36421871 90.07043171 C168.82835328 90.11529826 158.29252097 90.15473379 147.7565918 90.18115234 C138.56793638 90.20420668 129.37938657 90.2376871 120.19081503 90.28341836 C115.33056797 90.30725071 110.47042483 90.32604468 105.61012077 90.3323307 C101.02427798 90.33842707 96.43870077 90.35858891 91.85295677 90.38899231 C90.18060407 90.39770023 88.50821655 90.40151038 86.83584213 90.39972496 C73.58483414 90.39005518 60.04808557 91.0426807 48.1171875 97.4597168 C47.12138672 97.97804077 47.12138672 97.97804077 46.10546875 98.50683594 C40.06454889 101.78512209 35.18346951 105.87499478 30.4296875 110.8347168 C29.73617187 111.49729492 29.04265625 112.15987305 28.328125 112.8425293 C8.16875638 133.31323952 8.53508989 165.67209895 7.3046875 192.4597168 C7.21796077 194.25661662 7.1307234 196.05349188 7.04296875 197.8503418 C6.83268722 202.1782078 6.62920205 206.50634163 6.4296875 210.8347168 C3.07922373 209.37968186 0.90003648 207.54371528 -1.66113281 204.95507812 C-2.45585999 204.1569722 -3.25058716 203.35886627 -4.06939697 202.53657532 C-4.92048035 201.67203232 -5.77156372 200.80748932 -6.6484375 199.91674805 C-7.53384216 199.02614182 -8.41924683 198.13553558 -9.33148193 197.21794128 C-11.68609014 194.84852903 -14.03656105 192.47517395 -16.38470459 190.09936523 C-19.67422409 186.77194515 -22.96873982 183.44950521 -26.26629639 180.13005066 C-28.01884069 178.36536927 -29.76870601 176.59802188 -31.51544189 174.82759094 C-35.85224633 170.45570408 -40.254519 166.24272468 -44.9349823 162.23928833 C-51.03106244 157.0034157 -56.41173779 150.97811031 -61.5703125 144.8347168 C-62.45203125 143.82151367 -62.45203125 143.82151367 -63.3515625 142.7878418 C-79.99405206 122.78765697 -81.44127129 95.06857155 -79.35205078 70.2409668 C-76.66088945 49.35490627 -66.42088065 29.76112722 -50.51953125 16.00268555 C-47.1094992 13.49597324 -43.64066447 11.45678088 -39.8828125 9.5222168 C-39.2846875 9.20881348 -38.6865625 8.89541016 -38.0703125 8.57250977 C-26.14740629 2.7992806 -13.03986207 1.07565629 0 0 Z " fill="#39C7F4" transform="translate(177.5703125,-1.834716796875)"/>
<path d="M0 0 C1.65906916 1.41712157 3.31725421 2.83528765 4.97167969 4.25782776 C6.20795575 5.31969448 7.44739402 6.37791225 8.69238281 7.42955017 C19.36446874 16.56794918 29.12988295 26.78650009 39.08984375 36.68481445 C41.68854584 39.26572723 44.29548662 41.83785459 46.91015625 44.40258789 C50.09717637 47.52885985 53.26870012 50.67012328 56.43029785 53.82209587 C57.62423728 55.00757678 58.8232292 56.18799525 60.02770996 57.36276436 C69.95311385 67.05631171 77.69987037 77.27987375 81.875 90.75 C82.24367188 91.89984375 82.61234375 93.0496875 82.9921875 94.234375 C90.31418432 121.59253367 87.81014693 150.48621686 73.97851562 175.32324219 C71.94179556 178.8133104 69.6186221 181.93288461 67 185 C66.55398438 185.5878125 66.10796875 186.175625 65.6484375 186.78125 C61.56806418 191.97859702 56.50692777 195.41940863 51 199 C45.65304023 194.535788 40.68153184 189.8191737 35.76977539 184.88330078 C34.97871399 184.09238541 34.18765259 183.30147003 33.37261963 182.48658752 C30.77858558 179.89186111 28.18810398 177.2936189 25.59765625 174.6953125 C23.79183966 172.88762933 21.98580104 171.08016794 20.17955017 169.2729187 C15.92447273 165.01442329 11.67162814 160.75371057 7.41987652 156.49189556 C2.57536591 151.63617012 -2.27201732 146.78331665 -7.1196326 141.930691 C-17.08293322 131.95696499 -27.0426579 121.9796745 -37 112 C-34.36119022 109.30294824 -31.84494054 106.8844655 -28.8125 104.625 C-8.86702238 87.59731059 -3.57143771 55.92286278 -1.26123047 31.37548828 C-0.45351071 20.93854121 -0.21118372 10.46351158 0 0 Z " fill="#39C7F4" transform="translate(338,117)"/>
<path d="M0 0 C24.5093653 0 24.5093653 0 30.25837708 5.51002502 C30.99279526 6.32196823 31.72721344 7.13391144 32.48388672 7.97045898 C33.33565994 8.81741333 34.18743317 9.66436768 35.0650177 10.5369873 C37.35246386 12.8328092 39.58404102 15.16901052 41.79849768 17.53489947 C44.13778928 20.0096929 46.54080837 22.42112639 48.93704224 24.84059143 C53.44819998 29.41452239 57.90003819 34.04184682 62.33270466 38.69174391 C67.38709784 43.98766575 72.50861654 49.21660988 77.63503242 54.44268692 C85.58726926 62.55380047 93.50397214 70.69841069 101.36279297 78.90014648 C102.14174423 79.71006546 102.9206955 80.51998444 103.72325134 81.35444641 C104.42348923 82.08785248 105.12372711 82.82125854 105.84518433 83.57688904 C106.45817823 84.21753516 107.07117214 84.85818129 107.70274162 85.51824093 C109 87 109 87 109 88 C73.03 88 37.06 88 0 88 C0 58.96 0 29.92 0 0 Z " fill="#39C7F4" transform="translate(228,239)"/>
<path d="M0 0 C28.38 0 56.76 0 86 0 C86 28.38 86 56.76 86 86 C82.59850627 84.29925313 80.98416127 83.23489382 78.40594482 80.65991211 C77.71048553 79.97009247 77.01502625 79.28027283 76.29849243 78.56954956 C75.54611298 77.81312164 74.79373352 77.05669373 74.01855469 76.27734375 C73.2181778 75.4804715 72.4178009 74.68359924 71.59317017 73.86257935 C68.9476824 71.22589815 66.30958165 68.58196369 63.671875 65.9375 C61.83942459 64.10639627 60.00667733 62.27558957 58.17364502 60.44506836 C54.33385303 56.60822596 50.49761176 52.76788327 46.6640625 48.92480469 C42.22797073 44.47781353 37.78469883 40.03809419 33.33765864 35.60205364 C29.06161817 31.3361679 24.79120522 27.06469964 20.52317047 22.790802 C18.70487743 20.97117072 16.88508633 19.15303516 15.06380463 17.33639526 C12.52563403 14.80327626 9.99391714 12.26388249 7.46386719 9.72265625 C6.70339081 8.96622833 5.94291443 8.20980042 5.15939331 7.43045044 C4.47521332 6.7406308 3.79103333 6.05081116 3.08612061 5.34008789 C2.48661968 4.73983292 1.88711876 4.13957794 1.26945114 3.52113342 C0 2 0 2 0 0 Z " fill="#39C7F4" transform="translate(98,239)"/>
<path d="M0 0 C0.80851913 0.00424484 1.61703827 0.00848969 2.45005798 0.01286316 C4.99701248 0.0294684 7.54313415 0.06708342 10.08984375 0.10546875 C11.83136867 0.12053917 13.57290616 0.13422341 15.31445312 0.14648438 C19.55239736 0.17931191 23.78973007 0.2309642 28.02734375 0.29296875 C28.10251428 4.63050085 28.15641738 8.96766978 28.19213867 13.30566406 C28.20705804 14.77578348 28.22740102 16.24585975 28.25366211 17.71582031 C28.50642877 32.24742527 27.18698611 44.3562176 17.05859375 55.44921875 C8.06318911 64.18388702 -1.47422552 66.82430086 -13.69540405 66.77041626 C-16.20511143 66.73203304 -18.7134845 66.66946591 -21.22265625 66.60546875 C-22.95048823 66.58033134 -24.67835581 66.55752786 -26.40625 66.53710938 C-30.59594788 66.48259744 -34.78389823 66.39663509 -38.97265625 66.29296875 C-39.04752864 61.63398645 -39.10159457 56.9753642 -39.13745117 52.31591797 C-39.15241896 50.73512664 -39.17280062 49.15437597 -39.19897461 47.57373047 C-39.42357436 33.64854575 -38.2223129 22.52230873 -28.66015625 11.66796875 C-19.75446792 3.79782558 -12.09661191 -0.24552043 0 0 Z " fill="#39C7F4" transform="translate(266.97265625,130.70703125)"/>
<path d="M0 0 C22 0 22 0 30 4 C33.04372591 8.28023956 33.56589297 11.81264776 33 17 C31.27345454 20.88472728 29.78823229 22.27024931 26 24 C26.83144531 24.48919922 26.83144531 24.48919922 27.6796875 24.98828125 C28.40414062 25.42527344 29.12859375 25.86226563 29.875 26.3125 C30.59429688 26.74175781 31.31359375 27.17101562 32.0546875 27.61328125 C34 29 34 29 36 32 C36.67785474 37.46224807 36.6301514 42.43832044 34.5625 47.5625 C25.47966479 56.20227008 11.04895603 53 0 53 C0 35.51 0 18.02 0 0 Z M8 8 C8 12.29 8 16.58 8 21 C15.37544429 21.51423658 15.37544429 21.51423658 22.25 19.4375 C24.34378519 17.00918232 24.34378519 17.00918232 24.0625 13.375 C23.37750319 10.00772761 23.37750319 10.00772761 21.29296875 8.796875 C18.49227691 7.82355109 16.20881273 7.80455208 13.25 7.875 C10.65125 7.936875 10.65125 7.936875 8 8 Z M8 29 C8 34.28 8 39.56 8 45 C17.50295607 45.6207878 17.50295607 45.6207878 26 42 C28.31537595 39.18291805 28.31537595 39.18291805 27.8125 36 C26.98796725 32.95557137 26.45947654 31.86920217 24 30 C20.99686252 28.49843126 18.20932478 28.90718796 14.875 28.9375 C11.471875 28.9684375 11.471875 28.9684375 8 29 Z " fill="#FFFFFF" transform="translate(487,386)"/>
<path d="M0 0 C26.53125 0 26.53125 0 32.3125 5 C35.9471239 9.3077024 35.32486993 14.45907265 35.2890625 19.82421875 C34.77001701 25.52670497 31.9424797 28.09140981 28 32 C28.27263672 32.52956299 28.54527344 33.05912598 28.82617188 33.60473633 C30.05705352 36.00416652 31.2786072 38.40822679 32.5 40.8125 C32.92925781 41.64587891 33.35851562 42.47925781 33.80078125 43.33789062 C34.20683594 44.14033203 34.61289063 44.94277344 35.03125 45.76953125 C35.40830078 46.50792236 35.78535156 47.24631348 36.17382812 48.00708008 C37 50 37 50 37 53 C33.7 53 30.4 53 27 53 C26.46632813 51.64003906 25.93265625 50.28007812 25.3828125 48.87890625 C24.6323228 47.10587433 23.87960081 45.33378614 23.125 43.5625 C22.77953125 42.66466797 22.4340625 41.76683594 22.078125 40.84179688 C20.92220621 38.20112034 19.92625961 36.15112139 18 34 C14.44286389 32.85580831 11.80548848 32.92058663 8 33 C8 39.6 8 46.2 8 53 C5.36 53 2.72 53 0 53 C0 35.51 0 18.02 0 0 Z M8 8 C8 13.61 8 19.22 8 25 C11.0628125 25.12375 11.0628125 25.12375 14.1875 25.25 C15.91033203 25.31960938 15.91033203 25.31960938 17.66796875 25.390625 C21.6559328 24.92310284 23.20952591 23.83128541 26 21 C27.23674251 17.36706886 27.34458203 15.75808047 25.75 12.25 C24.02635231 9.78918149 24.02635231 9.78918149 21 8 C17.79620876 7.75753217 17.79620876 7.75753217 14.3125 7.875 C12.229375 7.91625 10.14625 7.9575 8 8 Z " fill="#FFFFFF" transform="translate(46,386)"/>
<path d="M0 0 C2.97 0 5.94 0 9 0 C9 7.26 9 14.52 9 22 C14.61 22 20.22 22 26 22 C26 14.74 26 7.48 26 0 C28.97 0 31.94 0 35 0 C35 17.49 35 34.98 35 53 C32.03 53 29.06 53 26 53 C26 45.41 26 37.82 26 30 C20.39 30 14.78 30 9 30 C9 37.59 9 45.18 9 53 C6.03 53 3.06 53 0 53 C0 35.51 0 18.02 0 0 Z " fill="#FFFFFF" transform="translate(398,386)"/>
<path d="M0 0 C11.88 0 23.76 0 36 0 C36 2.64 36 5.28 36 8 C27.09 8 18.18 8 9 8 C9 12.62 9 17.24 9 22 C15.6 22 22.2 22 29 22 C29 24.64 29 27.28 29 30 C22.4 30 15.8 30 9 30 C9 34.95 9 39.9 9 45 C17.91 45 26.82 45 36 45 C36 47.64 36 50.28 36 53 C24.12 53 12.24 53 0 53 C0 35.51 0 18.02 0 0 Z " fill="#FFFFFF" transform="translate(90,386)"/>
<path d="M0 0 C2.97 0 5.94 0 9 0 C9.01458252 1.22630127 9.02916504 2.45260254 9.04418945 3.71606445 C9.10212083 8.26177266 9.17935381 12.80698281 9.26245117 17.35229492 C9.29572486 19.32031171 9.32374915 21.28842449 9.34643555 23.2565918 C9.37993678 26.08423812 9.43224963 28.91100282 9.48828125 31.73828125 C9.49467117 32.61962234 9.5010611 33.50096344 9.50764465 34.40901184 C9.53733589 35.6399482 9.53733589 35.6399482 9.56762695 36.89575195 C9.57873001 37.61745071 9.58983307 38.33914948 9.60127258 39.0827179 C10.11331166 41.54485951 11.0537875 42.45409969 13 44 C14.94702034 44.43473633 14.94702034 44.43473633 17 44.3125 C17.680625 44.30863281 18.36125 44.30476563 19.0625 44.30078125 C21.32191109 44.08908293 21.32191109 44.08908293 24 42 C25.30920503 38.0723849 25.23462868 34.27429369 25.31640625 30.17578125 C25.33718735 29.31438034 25.35796844 28.45297943 25.37937927 27.56547546 C25.44474909 24.81456456 25.50370132 22.06355844 25.5625 19.3125 C25.60569717 17.44725579 25.64931185 15.5820212 25.69335938 13.71679688 C25.80041763 9.14462876 25.90172054 4.5723649 26 0 C28.97 0 31.94 0 35 0 C35.07464507 5.38937415 35.12883434 10.77844152 35.16479492 16.16821289 C35.17979997 17.99834441 35.20021059 19.82844046 35.22631836 21.65844727 C35.26306906 24.30233558 35.27980937 26.94574492 35.29296875 29.58984375 C35.30845261 30.39646957 35.32393646 31.2030954 35.33988953 32.03416443 C35.34154153 37.72179919 34.4489791 42.82172305 32 48 C27.40479557 52.59520443 23.52628473 53.18423918 17.1875 53.3125 C11.34027798 53.27030355 8.20283719 53.089247 4 49 C0.89430069 45.46592837 -0.12754283 42.47176377 -0.11352539 37.80395508 C-0.11344986 36.96331009 -0.11337433 36.1226651 -0.11329651 35.25654602 C-0.10813522 34.35333115 -0.10297394 33.45011627 -0.09765625 32.51953125 C-0.0962413 31.59154221 -0.09482635 30.66355316 -0.09336853 29.70744324 C-0.08776937 26.74242942 -0.07521704 23.77749101 -0.0625 20.8125 C-0.05748489 18.80273547 -0.052922 16.79296975 -0.04882812 14.78320312 C-0.03780021 9.85543968 -0.02053617 4.92773263 0 0 Z " fill="#FFFFFF" transform="translate(442,386)"/>
<path d="M0 0 C11.55 0 23.1 0 35 0 C35 2.64 35 5.28 35 8 C26.09 8 17.18 8 8 8 C8 12.62 8 17.24 8 22 C14.6 22 21.2 22 28 22 C28 24.64 28 27.28 28 30 C21.4 30 14.8 30 8 30 C8 34.95 8 39.9 8 45 C16.91 45 25.82 45 35 45 C35 47.64 35 50.28 35 53 C23.45 53 11.9 53 0 53 C0 35.51 0 18.02 0 0 Z " fill="#FFFFFF" transform="translate(311,386)"/>
<path d="M0 0 C3.96 0 7.92 0 12 0 C16.07463509 13.12350004 20.11898377 26.25523519 24 39.4375 C24.30236572 40.45457031 24.60473145 41.47164063 24.91625977 42.51953125 C25.19139404 43.46054687 25.46652832 44.4015625 25.75 45.37109375 C25.99234375 46.19536865 26.2346875 47.01964355 26.484375 47.86889648 C27 50 27 50 27 53 C24.03 53 21.06 53 18 53 C17.49487756 51.39743892 16.99608373 49.79288208 16.5 48.1875 C16.2215625 47.29417969 15.943125 46.40085937 15.65625 45.48046875 C15 43 15 43 15 40 C9.06 40 3.12 40 -3 40 C-3.309375 41.588125 -3.61875 43.17625 -3.9375 44.8125 C-4.48923795 47.64475482 -5.08592978 50.25778934 -6 53 C-8.97 53 -11.94 53 -15 53 C-13.72771381 46.2485718 -12.16906709 39.70854549 -10.21484375 33.125 C-9.95369278 32.23385498 -9.69254181 31.34270996 -9.42347717 30.42456055 C-8.87670942 28.56190445 -8.32789613 26.69984766 -7.77709961 24.83837891 C-6.93184799 21.98089262 -6.09335903 19.1214856 -5.25585938 16.26171875 C-4.72174436 14.44519773 -4.18725288 12.62878734 -3.65234375 10.8125 C-3.27576881 9.52980225 -3.27576881 9.52980225 -2.8915863 8.22119141 C-2.65786819 7.43276855 -2.42415009 6.6443457 -2.18334961 5.83203125 C-1.97842392 5.13827393 -1.77349823 4.4445166 -1.56236267 3.72973633 C-1 2 -1 2 0 0 Z M5 10 C4.1602972 12.91496831 3.32803997 15.8317186 2.5 18.75 C2.26152344 19.575 2.02304688 20.4 1.77734375 21.25 C1.55175781 22.04921875 1.32617188 22.8484375 1.09375 23.671875 C0.88427734 24.4050293 0.67480469 25.13818359 0.45898438 25.89355469 C-0.14193318 28.29207091 -0.14193318 28.29207091 0 32 C3.96 32 7.92 32 12 32 C11.38955672 24.36945905 9.20378179 17.29810526 7 10 C6.34 10 5.68 10 5 10 Z " fill="#FFFFFF" transform="translate(145,386)"/>
<path d="M0 0 C2.97 0 5.94 0 9 0 C12.01013425 8.56280907 14.32616548 17.30506557 16.6875 26.0625 C17.10718423 27.61139254 17.52710418 29.16022122 17.94726562 30.70898438 C18.96756346 34.47192547 19.98466555 38.23571677 21 42 C21.15033691 41.4738208 21.30067383 40.9476416 21.45556641 40.40551758 C25.30371094 26.93701172 29.15185547 13.46850586 33 0 C35.97 0 38.94 0 42 0 C40.70954349 6.82305516 39.13745608 13.4587574 37.21484375 20.12890625 C36.95369278 21.04461899 36.69254181 21.96033173 36.42347717 22.90379333 C35.87661013 24.81767973 35.32779723 26.73101112 34.77709961 28.64379883 C33.93115765 31.58454793 33.09311803 34.52747144 32.25585938 37.47070312 C31.72181889 39.33607061 31.18733016 41.20130984 30.65234375 43.06640625 C30.27576881 44.3896566 30.27576881 44.3896566 29.8915863 45.73963928 C28.11521213 51.88478787 28.11521213 51.88478787 27 53 C23.00015522 53.14346646 19.00170018 53.04212316 15 53 C11.61923253 42.36173037 8.40894776 31.68452697 5.3503418 20.94921875 C4.67384725 18.57712738 3.99231854 16.20651691 3.31054688 13.8359375 C2.87730589 12.32039774 2.44435166 10.80477596 2.01171875 9.2890625 C1.80866623 8.58399567 1.60561371 7.87892883 1.39640808 7.15249634 C0 2.22948457 0 2.22948457 0 0 Z " fill="#FFFFFF" transform="translate(262,386)"/>
<path d="M0 0 C1.7265625 1.60546875 1.7265625 1.60546875 3 3 C1.70700306 5.88437779 0.34058637 7.87219421 -2 10 C-4.49361571 8.79618552 -6.68143083 7.54571278 -9 6 C-14.22623862 5.50695862 -17.56626711 6.17853362 -22 9 C-25.37658849 12.25599604 -26.44693964 16.44672227 -27 21 C-27.00990646 27.98405159 -26.26152649 34.00487788 -21.71484375 39.57421875 C-18.20143902 42.49538669 -13.42850366 42.69518092 -9 43 C-5.57086642 42.62252243 -2.31800956 41.9356643 1 41 C1.495 44.96 1.495 44.96 2 49 C-5.31131312 52.57665416 -15.37126318 52.23013401 -23.16015625 50.16015625 C-29.02148154 47.53449469 -32.47817499 43.89989758 -35 38 C-37.53921924 29.24067783 -37.79227778 16.48175297 -34.0625 8.125 C-30.74008759 2.77695723 -25.60307684 -1.08662282 -19.48828125 -2.63671875 C-12.24693942 -3.69393192 -6.66088576 -3.10075716 0 0 Z " fill="#FFFFFF" transform="translate(36,388)"/>
<path d="M0 0 C10.56 0 21.12 0 32 0 C32 2.64 32 5.28 32 8 C28.04 8 24.08 8 20 8 C20 20.21 20 32.42 20 45 C23.96 45 27.92 45 32 45 C32 47.64 32 50.28 32 53 C21.44 53 10.88 53 0 53 C0 50.36 0 47.72 0 45 C3.96 45 7.92 45 12 45 C12 32.79 12 20.58 12 8 C8.04 8 4.08 8 0 8 C0 5.36 0 2.72 0 0 Z " fill="#FFFFFF" transform="translate(223,386)"/>
<path d="M0 0 C13.2 0 26.4 0 40 0 C40 2.64 40 5.28 40 8 C34.72 8 29.44 8 24 8 C24 22.85 24 37.7 24 53 C21.36 53 18.72 53 16 53 C16 38.15 16 23.3 16 8 C10.72 8 5.44 8 0 8 C0 5.36 0 2.72 0 0 Z " fill="#FFFFFF" transform="translate(175,386)"/>
</svg>
